<svg version="1.1" viewBox="0.0 0.0 600.0 371.0" fill="none" stroke="none" stroke-linecap="square" stroke-miterlimit="10" width="600" height="371" xmlns:xlink="http://www.w3.org/1999/xlink" xmlns="http://www.w3.org/2000/svg"><path fill="#ffffff" d="M0 0L600.0 0L600.0 371.0L0 371.0L0 0Z" fill-rule="nonzero"/><path stroke="#333333" stroke-width="1.0" stroke-linecap="butt" d="M80.5 300.5L581.5 300.5" fill-rule="nonzero"/><path stroke="#cccccc" stroke-width="1.0" stroke-linecap="butt" d="M80.5 247.5L581.5 247.5" fill-rule="nonzero"/><path stroke="#cccccc" stroke-width="1.0" stroke-linecap="butt" d="M80.5 194.5L581.5 194.5" fill-rule="nonzero"/><path stroke="#cccccc" stroke-width="1.0" stroke-linecap="butt" d="M80.5 141.5L581.5 141.5" fill-rule="nonzero"/><path stroke="#cccccc" stroke-width="1.0" stroke-linecap="butt" d="M80.5 88.5L581.5 88.5" fill-rule="nonzero"/><clipPath id="id_0"><path d="M80.55 88.28333L581.45 88.28333L581.45 300.45L80.55 300.45L80.55 88.28333Z" clip-rule="nonzero"/></clipPath><path stroke="#000000" stroke-width="0.0" stroke-linecap="butt" stroke-opacity="0.0" clip-path="url(#id_0)" d="M118.0 300.0L109.0 300.0L109.0 90.0C109.0 88.89543 109.89543 88.0 111.0 88.0L116.0 88.0C117.10457 88.0 118.0 88.89543 118.0 90.0Z" fill-rule="nonzero"/><path fill="#4285f4" clip-path="url(#id_0)" d="M118.0 300.0L109.0 300.0L109.0 90.0C109.0 88.89543 109.89543 88.0 111.0 88.0L116.0 88.0C117.10457 88.0 118.0 88.89543 118.0 90.0Z" fill-rule="nonzero"/><path stroke="#000000" stroke-width="0.0" stroke-linecap="butt" stroke-opacity="0.0" clip-path="url(#id_0)" d="M197.0 300.0L188.0 300.0L188.0 92.0C188.0 90.89543 188.89543 90.0 190.0 90.0L195.0 90.0C196.10457 90.0 197.0 90.89543 197.0 92.0Z" fill-rule="nonzero"/><path fill="#4285f4" clip-path="url(#id_0)" d="M197.0 300.0L188.0 300.0L188.0 92.0C188.0 90.89543 188.89543 90.0 190.0 90.0L195.0 90.0C196.10457 90.0 197.0 90.89543 197.0 92.0Z" fill-rule="nonzero"/><path stroke="#000000" stroke-width="0.0" stroke-linecap="butt" stroke-opacity="0.0" clip-path="url(#id_0)" d="M276.0 300.0L267.0 300.0L267.0 101.0C267.0 99.89543 267.89542 99.0 269.0 99.0L274.0 99.0C275.10458 99.0 276.0 99.89543 276.0 101.0Z" fill-rule="nonzero"/><path fill="#4285f4" clip-path="url(#id_0)" d="M276.0 300.0L267.0 300.0L267.0 101.0C267.0 99.89543 267.89542 99.0 269.0 99.0L274.0 99.0C275.10458 99.0 276.0 99.89543 276.0 101.0Z" fill-rule="nonzero"/><path stroke="#000000" stroke-width="0.0" stroke-linecap="butt" stroke-opacity="0.0" clip-path="url(#id_0)" d="M354.0 300.0L345.0 300.0L345.0 128.0C345.0 126.89543 345.89542 126.0 347.0 126.0L352.0 126.0C353.10458 126.0 354.0 126.89543 354.0 128.0Z" fill-rule="nonzero"/><path fill="#4285f4" clip-path="url(#id_0)" d="M354.0 300.0L345.0 300.0L345.0 128.0C345.0 126.89543 345.89542 126.0 347.0 126.0L352.0 126.0C353.10458 126.0 354.0 126.89543 354.0 128.0Z" fill-rule="nonzero"/><path stroke="#000000" stroke-width="0.0" stroke-linecap="butt" stroke-opacity="0.0" clip-path="url(#id_0)" d="M433.0 300.0L424.0 300.0L424.0 103.0C424.0 101.89543 424.89542 101.0 426.0 101.0L431.0 101.0C432.10458 101.0 433.0 101.89543 433.0 103.0Z" fill-rule="nonzero"/><path fill="#4285f4" clip-path="url(#id_0)" d="M433.0 300.0L424.0 300.0L424.0 103.0C424.0 101.89543 424.89542 101.0 426.0 101.0L431.0 101.0C432.10458 101.0 433.0 101.89543 433.0 103.0Z" fill-rule="nonzero"/><path stroke="#000000" stroke-width="0.0" stroke-linecap="butt" stroke-opacity="0.0" clip-path="url(#id_0)" d="M512.0 300.0L503.0 300.0L503.0 96.0C503.0 94.89543 503.89542 94.0 505.0 94.0L510.0 94.0C511.10458 94.0 512.0 94.89543 512.0 96.0Z" fill-rule="nonzero"/><path fill="#4285f4" clip-path="url(#id_0)" d="M512.0 300.0L503.0 300.0L503.0 96.0C503.0 94.89543 503.89542 94.0 505.0 94.0L510.0 94.0C511.10458 94.0 512.0 94.89543 512.0 96.0Z" fill-rule="nonzero"/><path stroke="#000000" stroke-width="0.0" stroke-linecap="butt" stroke-opacity="0.0" clip-path="url(#id_0)" d="M128.0 300.0L119.0 300.0L119.0 162.0C119.0 160.89543 119.89543 160.0 121.0 160.0L126.0 160.0C127.10457 160.0 128.0 160.89543 128.0 162.0Z" fill-rule="nonzero"/><path fill="#ea4335" clip-path="url(#id_0)" d="M128.0 300.0L119.0 300.0L119.0 162.0C119.0 160.89543 119.89543 160.0 121.0 160.0L126.0 160.0C127.10457 160.0 128.0 160.89543 128.0 162.0Z" fill-rule="nonzero"/><path stroke="#000000" stroke-width="0.0" stroke-linecap="butt" stroke-opacity="0.0" clip-path="url(#id_0)" d="M207.0 300.0L198.0 300.0L198.0 191.0C198.0 189.89543 198.89543 189.0 200.0 189.0L205.0 189.0C206.10457 189.0 207.0 189.89543 207.0 191.0Z" fill-rule="nonzero"/><path fill="#ea4335" clip-path="url(#id_0)" d="M207.0 300.0L198.0 300.0L198.0 191.0C198.0 189.89543 198.89543 189.0 200.0 189.0L205.0 189.0C206.10457 189.0 207.0 189.89543 207.0 191.0Z" fill-rule="nonzero"/><path stroke="#000000" stroke-width="0.0" stroke-linecap="butt" stroke-opacity="0.0" clip-path="url(#id_0)" d="M286.0 300.0L277.0 300.0L277.0 256.0C277.0 254.89543 277.89542 254.0 279.0 254.0L284.0 254.0C285.10458 254.0 286.0 254.89543 286.0 256.0Z" fill-rule="nonzero"/><path fill="#ea4335" clip-path="url(#id_0)" d="M286.0 300.0L277.0 300.0L277.0 256.0C277.0 254.89543 277.89542 254.0 279.0 254.0L284.0 254.0C285.10458 254.0 286.0 254.89543 286.0 256.0Z" fill-rule="nonzero"/><path stroke="#000000" stroke-width="0.0" stroke-linecap="butt" stroke-opacity="0.0" clip-path="url(#id_0)" d="M364.0 300.0L355.0 300.0L355.0 261.0C355.0 259.89542 355.89542 259.0 357.0 259.0L362.0 259.0C363.10458 259.0 364.0 259.89542 364.0 261.0Z" fill-rule="nonzero"/><path fill="#ea4335" clip-path="url(#id_0)" d="M364.0 300.0L355.0 300.0L355.0 261.0C355.0 259.89542 355.89542 259.0 357.0 259.0L362.0 259.0C363.10458 259.0 364.0 259.89542 364.0 261.0Z" fill-rule="nonzero"/><path stroke="#000000" stroke-width="0.0" stroke-linecap="butt" stroke-opacity="0.0" clip-path="url(#id_0)" d="M443.0 300.0L434.0 300.0L434.0 260.0C434.0 258.89542 434.89542 258.0 436.0 258.0L441.0 258.0C442.10458 258.0 443.0 258.89542 443.0 260.0Z" fill-rule="nonzero"/><path fill="#ea4335" clip-path="url(#id_0)" d="M443.0 300.0L434.0 300.0L434.0 260.0C434.0 258.89542 434.89542 258.0 436.0 258.0L441.0 258.0C442.10458 258.0 443.0 258.89542 443.0 260.0Z" fill-rule="nonzero"/><path stroke="#000000" stroke-width="0.0" stroke-linecap="butt" stroke-opacity="0.0" clip-path="url(#id_0)" d="M522.0 300.0L513.0 300.0L513.0 289.0C513.0 287.89542 513.89545 287.0 515.0 287.0L520.0 287.0C521.10455 287.0 522.0 287.89542 522.0 289.0Z" fill-rule="nonzero"/><path fill="#ea4335" clip-path="url(#id_0)" d="M522.0 300.0L513.0 300.0L513.0 289.0C513.0 287.89542 513.89545 287.0 515.0 287.0L520.0 287.0C521.10455 287.0 522.0 287.89542 522.0 289.0Z" fill-rule="nonzero"/><path stroke="#000000" stroke-width="0.0" stroke-linecap="butt" stroke-opacity="0.0" clip-path="url(#id_0)" d="M138.0 300.0L129.0 300.0L129.0 102.0C129.0 100.89543 129.89543 100.0 131.0 100.0L136.0 100.0C137.10457 100.0 138.0 100.89543 138.0 102.0Z" fill-rule="nonzero"/><path fill="#fbbc04" clip-path="url(#id_0)" d="M138.0 300.0L129.0 300.0L129.0 102.0C129.0 100.89543 129.89543 100.0 131.0 100.0L136.0 100.0C137.10457 100.0 138.0 100.89543 138.0 102.0Z" fill-rule="nonzero"/><path stroke="#000000" stroke-width="0.0" stroke-linecap="butt" stroke-opacity="0.0" clip-path="url(#id_0)" d="M217.0 300.0L208.0 300.0L208.0 131.0C208.0 129.89543 208.89543 129.0 210.0 129.0L215.0 129.0C216.10457 129.0 217.0 129.89543 217.0 131.0Z" fill-rule="nonzero"/><path fill="#fbbc04" clip-path="url(#id_0)" d="M217.0 300.0L208.0 300.0L208.0 131.0C208.0 129.89543 208.89543 129.0 210.0 129.0L215.0 129.0C216.10457 129.0 217.0 129.89543 217.0 131.0Z" fill-rule="nonzero"/><path stroke="#000000" stroke-width="0.0" stroke-linecap="butt" stroke-opacity="0.0" clip-path="url(#id_0)" d="M296.0 300.0L287.0 300.0L287.0 166.0C287.0 164.89543 287.89542 164.0 289.0 164.0L294.0 164.0C295.10458 164.0 296.0 164.89543 296.0 166.0Z" fill-rule="nonzero"/><path fill="#fbbc04" clip-path="url(#id_0)" d="M296.0 300.0L287.0 300.0L287.0 166.0C287.0 164.89543 287.89542 164.0 289.0 164.0L294.0 164.0C295.10458 164.0 296.0 164.89543 296.0 166.0Z" fill-rule="nonzero"/><path stroke="#000000" stroke-width="0.0" stroke-linecap="butt" stroke-opacity="0.0" clip-path="url(#id_0)" d="M374.0 300.0L365.0 300.0L365.0 213.0C365.0 211.89543 365.89542 211.0 367.0 211.0L372.0 211.0C373.10458 211.0 374.0 211.89543 374.0 213.0Z" fill-rule="nonzero"/><path fill="#fbbc04" clip-path="url(#id_0)" d="M374.0 300.0L365.0 300.0L365.0 213.0C365.0 211.89543 365.89542 211.0 367.0 211.0L372.0 211.0C373.10458 211.0 374.0 211.89543 374.0 213.0Z" fill-rule="nonzero"/><path stroke="#000000" stroke-width="0.0" stroke-linecap="butt" stroke-opacity="0.0" clip-path="url(#id_0)" d="M453.0 300.0L444.0 300.0L444.0 202.0C444.0 200.89543 444.89542 200.0 446.0 200.0L451.0 200.0C452.10458 200.0 453.0 200.89543 453.0 202.0Z" fill-rule="nonzero"/><path fill="#fbbc04" clip-path="url(#id_0)" d="M453.0 300.0L444.0 300.0L444.0 202.0C444.0 200.89543 444.89542 200.0 446.0 200.0L451.0 200.0C452.10458 200.0 453.0 200.89543 453.0 202.0Z" fill-rule="nonzero"/><path stroke="#000000" stroke-width="0.0" stroke-linecap="butt" stroke-opacity="0.0" clip-path="url(#id_0)" d="M532.0 300.0L523.0 300.0L523.0 216.0C523.0 214.89543 523.89545 214.0 525.0 214.0L530.0 214.0C531.10455 214.0 532.0 214.89543 532.0 216.0Z" fill-rule="nonzero"/><path fill="#fbbc04" clip-path="url(#id_0)" d="M532.0 300.0L523.0 300.0L523.0 216.0C523.0 214.89543 523.89545 214.0 525.0 214.0L530.0 214.0C531.10455 214.0 532.0 214.89543 532.0 216.0Z" fill-rule="nonzero"/><path stroke="#000000" stroke-width="0.0" stroke-linecap="butt" stroke-opacity="0.0" clip-path="url(#id_0)" d="M148.0 300.0L139.0 300.0L139.0 90.0C139.0 88.89543 139.89543 88.0 141.0 88.0L146.0 88.0C147.10457 88.0 148.0 88.89543 148.0 90.0Z" fill-rule="nonzero"/><path fill="#34a853" clip-path="url(#id_0)" d="M148.0 300.0L139.0 300.0L139.0 90.0C139.0 88.89543 139.89543 88.0 141.0 88.0L146.0 88.0C147.10457 88.0 148.0 88.89543 148.0 90.0Z" fill-rule="nonzero"/><path stroke="#000000" stroke-width="0.0" stroke-linecap="butt" stroke-opacity="0.0" clip-path="url(#id_0)" d="M227.0 300.0L218.0 300.0L218.0 94.0C218.0 92.89543 218.89543 92.0 220.0 92.0L225.0 92.0C226.10457 92.0 227.0 92.89543 227.0 94.0Z" fill-rule="nonzero"/><path fill="#34a853" clip-path="url(#id_0)" d="M227.0 300.0L218.0 300.0L218.0 94.0C218.0 92.89543 218.89543 92.0 220.0 92.0L225.0 92.0C226.10457 92.0 227.0 92.89543 227.0 94.0Z" fill-rule="nonzero"/><path stroke="#000000" stroke-width="0.0" stroke-linecap="butt" stroke-opacity="0.0" clip-path="url(#id_0)" d="M306.0 300.0L297.0 300.0L297.0 109.0C297.0 107.89543 297.89542 107.0 299.0 107.0L304.0 107.0C305.10458 107.0 306.0 107.89543 306.0 109.0Z" fill-rule="nonzero"/><path fill="#34a853" clip-path="url(#id_0)" d="M306.0 300.0L297.0 300.0L297.0 109.0C297.0 107.89543 297.89542 107.0 299.0 107.0L304.0 107.0C305.10458 107.0 306.0 107.89543 306.0 109.0Z" fill-rule="nonzero"/><path stroke="#000000" stroke-width="0.0" stroke-linecap="butt" stroke-opacity="0.0" clip-path="url(#id_0)" d="M384.0 300.0L375.0 300.0L375.0 142.0C375.0 140.89543 375.89542 140.0 377.0 140.0L382.0 140.0C383.10458 140.0 384.0 140.89543 384.0 142.0Z" fill-rule="nonzero"/><path fill="#34a853" clip-path="url(#id_0)" d="M384.0 300.0L375.0 300.0L375.0 142.0C375.0 140.89543 375.89542 140.0 377.0 140.0L382.0 140.0C383.10458 140.0 384.0 140.89543 384.0 142.0Z" fill-rule="nonzero"/><path stroke="#000000" stroke-width="0.0" stroke-linecap="butt" stroke-opacity="0.0" clip-path="url(#id_0)" d="M463.0 300.0L454.0 300.0L454.0 117.0C454.0 115.89543 454.89542 115.0 456.0 115.0L461.0 115.0C462.10458 115.0 463.0 115.89543 463.0 117.0Z" fill-rule="nonzero"/><path fill="#34a853" clip-path="url(#id_0)" d="M463.0 300.0L454.0 300.0L454.0 117.0C454.0 115.89543 454.89542 115.0 456.0 115.0L461.0 115.0C462.10458 115.0 463.0 115.89543 463.0 117.0Z" fill-rule="nonzero"/><path stroke="#000000" stroke-width="0.0" stroke-linecap="butt" stroke-opacity="0.0" clip-path="url(#id_0)" d="M542.0 300.0L533.0 300.0L533.0 102.0C533.0 100.89543 533.89545 100.0 535.0 100.0L540.0 100.0C541.10455 100.0 542.0 100.89543 542.0 102.0Z" fill-rule="nonzero"/><path fill="#34a853" clip-path="url(#id_0)" d="M542.0 300.0L533.0 300.0L533.0 102.0C533.0 100.89543 533.89545 100.0 535.0 100.0L540.0 100.0C541.10455 100.0 542.0 100.89543 542.0 102.0Z" fill-rule="nonzero"/><path stroke="#000000" stroke-width="0.0" stroke-linecap="butt" stroke-opacity="0.0" clip-path="url(#id_0)" d="M158.0 300.0L149.0 300.0L149.0 131.0C149.0 129.89543 149.89543 129.0 151.0 129.0L156.0 129.0C157.10457 129.0 158.0 129.89543 158.0 131.0Z" fill-rule="nonzero"/><path fill="#ff6d01" clip-path="url(#id_0)" d="M158.0 300.0L149.0 300.0L149.0 131.0C149.0 129.89543 149.89543 129.0 151.0 129.0L156.0 129.0C157.10457 129.0 158.0 129.89543 158.0 131.0Z" fill-rule="nonzero"/><path stroke="#000000" stroke-width="0.0" stroke-linecap="butt" stroke-opacity="0.0" clip-path="url(#id_0)" d="M237.0 300.0L228.0 300.0L228.0 148.0C228.0 146.89543 228.89543 146.0 230.0 146.0L235.0 146.0C236.10457 146.0 237.0 146.89543 237.0 148.0Z" fill-rule="nonzero"/><path fill="#ff6d01" clip-path="url(#id_0)" d="M237.0 300.0L228.0 300.0L228.0 148.0C228.0 146.89543 228.89543 146.0 230.0 146.0L235.0 146.0C236.10457 146.0 237.0 146.89543 237.0 148.0Z" fill-rule="nonzero"/><path stroke="#000000" stroke-width="0.0" stroke-linecap="butt" stroke-opacity="0.0" clip-path="url(#id_0)" d="M316.0 300.0L307.0 300.0L307.0 170.0C307.0 168.89543 307.89542 168.0 309.0 168.0L314.0 168.0C315.10458 168.0 316.0 168.89543 316.0 170.0Z" fill-rule="nonzero"/><path fill="#ff6d01" clip-path="url(#id_0)" d="M316.0 300.0L307.0 300.0L307.0 170.0C307.0 168.89543 307.89542 168.0 309.0 168.0L314.0 168.0C315.10458 168.0 316.0 168.89543 316.0 170.0Z" fill-rule="nonzero"/><path stroke="#000000" stroke-width="0.0" stroke-linecap="butt" stroke-opacity="0.0" clip-path="url(#id_0)" d="M394.0 300.0L385.0 300.0L385.0 204.0C385.0 202.89543 385.89542 202.0 387.0 202.0L392.0 202.0C393.10458 202.0 394.0 202.89543 394.0 204.0Z" fill-rule="nonzero"/><path fill="#ff6d01" clip-path="url(#id_0)" d="M394.0 300.0L385.0 300.0L385.0 204.0C385.0 202.89543 385.89542 202.0 387.0 202.0L392.0 202.0C393.10458 202.0 394.0 202.89543 394.0 204.0Z" fill-rule="nonzero"/><path stroke="#000000" stroke-width="0.0" stroke-linecap="butt" stroke-opacity="0.0" clip-path="url(#id_0)" d="M473.0 300.0L464.0 300.0L464.0 212.0C464.0 210.89543 464.89542 210.0 466.0 210.0L471.0 210.0C472.10458 210.0 473.0 210.89543 473.0 212.0Z" fill-rule="nonzero"/><path fill="#ff6d01" clip-path="url(#id_0)" d="M473.0 300.0L464.0 300.0L464.0 212.0C464.0 210.89543 464.89542 210.0 466.0 210.0L471.0 210.0C472.10458 210.0 473.0 210.89543 473.0 212.0Z" fill-rule="nonzero"/><path stroke="#000000" stroke-width="0.0" stroke-linecap="butt" stroke-opacity="0.0" clip-path="url(#id_0)" d="M552.0 300.0L543.0 300.0L543.0 218.0C543.0 216.89543 543.89545 216.0 545.0 216.0L550.0 216.0C551.10455 216.0 552.0 216.89543 552.0 218.0Z" fill-rule="nonzero"/><path fill="#ff6d01" clip-path="url(#id_0)" d="M552.0 300.0L543.0 300.0L543.0 218.0C543.0 216.89543 543.89545 216.0 545.0 216.0L550.0 216.0C551.10455 216.0 552.0 216.89543 552.0 218.0Z" fill-rule="nonzero"/><path fill="#000000" d="M310.92188 349.45L310.92188 340.85626L313.89062 340.85626Q314.89062 340.85626 315.42188 340.98126Q316.15625 341.15314 316.67188 341.59064Q317.35938 342.16876 317.6875 343.075Q318.03125 343.96564 318.03125 345.10626Q318.03125 346.09064 317.79688 346.84064Q317.57812 347.59064 317.21875 348.09064Q316.85938 348.59064 316.42188 348.8719Q316.0 349.15314 315.40625 349.3094Q314.8125 349.45 314.03125 349.45L310.92188 349.45ZM312.0625 348.4344L313.89062 348.4344Q314.75 348.4344 315.23438 348.27814Q315.71875 348.1219 316.0 347.825Q316.40625 347.4344 316.625 346.7469Q316.85938 346.0594 316.85938 345.09064Q316.85938 343.7469 316.40625 343.02814Q315.96875 342.29376 315.34375 342.04376Q314.875 341.8719 313.875 341.8719L312.0625 341.8719L312.0625 348.4344ZM323.85938 348.6844Q323.26562 349.1844 322.71875 349.3875Q322.1875 349.59064 321.5625 349.59064Q320.53125 349.59064 319.98438 349.09064Q319.4375 348.59064 319.4375 347.8094Q319.4375 347.35626 319.64062 346.98126Q319.84375 346.59064 320.1875 346.3719Q320.53125 346.1375 320.95312 346.02814Q321.25 345.9344 321.89062 345.85626Q323.15625 345.71564 323.76562 345.4969Q323.76562 345.27814 323.76562 345.23126Q323.76562 344.575 323.46875 344.3094Q323.0625 343.96564 322.26562 343.96564Q321.53125 343.96564 321.17188 344.23126Q320.8125 344.48126 320.64062 345.1375L319.60938 344.9969Q319.75 344.34064 320.07812 343.9344Q320.40625 343.52814 321.01562 343.3094Q321.625 343.09064 322.42188 343.09064Q323.21875 343.09064 323.71875 343.27814Q324.21875 343.46564 324.45312 343.7469Q324.6875 344.02814 324.78125 344.46564Q324.82812 344.73126 324.82812 345.4344L324.82812 346.84064Q324.82812 348.3094 324.89062 348.7Q324.96875 349.09064 325.17188 349.45L324.0625 349.45Q323.90625 349.1219 323.85938 348.6844ZM323.76562 346.325Q323.1875 346.5594 322.04688 346.73126Q321.39062 346.825 321.125 346.95Q320.85938 347.0594 320.70312 347.27814Q320.5625 347.4969 320.5625 347.77814Q320.5625 348.2 320.875 348.48126Q321.20312 348.7625 321.8125 348.7625Q322.42188 348.7625 322.89062 348.4969Q323.375 348.23126 323.59375 347.7625Q323.76562 347.40314 323.76562 346.71564L323.76562 346.325ZM329.09375 348.5125L329.25 349.4344Q328.79688 349.52814 328.45312 349.52814Q327.875 349.52814 327.5625 349.35626Q327.25 349.16876 327.10938 348.8719Q326.98438 348.575 326.98438 347.6219L326.98438 344.04376L326.21875 344.04376L326.21875 343.23126L326.98438 343.23126L326.98438 341.6844L328.03125 341.0594L328.03125 343.23126L329.09375 343.23126L329.09375 344.04376L328.03125 344.04376L328.03125 347.6844Q328.03125 348.1375 328.07812 348.2625Q328.14062 348.3875 328.26562 348.46564Q328.39062 348.54376 328.625 348.54376Q328.8125 348.54376 329.09375 348.5125ZM333.85938 348.6844Q333.26562 349.1844 332.71875 349.3875Q332.1875 349.59064 331.5625 349.59064Q330.53125 349.59064 329.98438 349.09064Q329.4375 348.59064 329.4375 347.8094Q329.4375 347.35626 329.64062 346.98126Q329.84375 346.59064 330.1875 346.3719Q330.53125 346.1375 330.95312 346.02814Q331.25 345.9344 331.89062 345.85626Q333.15625 345.71564 333.76562 345.4969Q333.76562 345.27814 333.76562 345.23126Q333.76562 344.575 333.46875 344.3094Q333.0625 343.96564 332.26562 343.96564Q331.53125 343.96564 331.17188 344.23126Q330.8125 344.48126 330.64062 345.1375L329.60938 344.9969Q329.75 344.34064 330.07812 343.9344Q330.40625 343.52814 331.01562 343.3094Q331.625 343.09064 332.42188 343.09064Q333.21875 343.09064 333.71875 343.27814Q334.21875 343.46564 334.45312 343.7469Q334.6875 344.02814 334.78125 344.46564Q334.82812 344.73126 334.82812 345.4344L334.82812 346.84064Q334.82812 348.3094 334.89062 348.7Q334.96875 349.09064 335.17188 349.45L334.0625 349.45Q333.90625 349.1219 333.85938 348.6844ZM333.76562 346.325Q333.1875 346.5594 332.04688 346.73126Q331.39062 346.825 331.125 346.95Q330.85938 347.0594 330.70312 347.27814Q330.5625 347.4969 330.5625 347.77814Q330.5625 348.2 330.875 348.48126Q331.20312 348.7625 331.8125 348.7625Q332.42188 348.7625 332.89062 348.4969Q333.375 348.23126 333.59375 347.7625Q333.76562 347.40314 333.76562 346.71564L333.76562 346.325ZM336.375 347.59064L337.40625 347.4344Q337.5 348.0594 337.89062 348.3875Q338.29688 348.71564 339.03125 348.71564Q339.75 348.71564 340.09375 348.4344Q340.45312 348.1375 340.45312 347.73126Q340.45312 347.3719 340.14062 347.16876Q339.92188 347.02814 339.0625 346.8094Q337.90625 346.5125 337.45312 346.3094Q337.01562 346.09064 336.78125 345.71564Q336.54688 345.34064 336.54688 344.8719Q336.54688 344.46564 336.73438 344.10626Q336.92188 343.7469 337.25 343.5125Q337.5 343.34064 337.92188 343.21564Q338.34375 343.09064 338.84375 343.09064Q339.5625 343.09064 340.10938 343.3094Q340.67188 343.5125 340.9375 343.8719Q341.20312 344.23126 341.29688 344.825L340.26562 344.96564Q340.20312 344.4969 339.85938 344.23126Q339.53125 343.95 338.90625 343.95Q338.1875 343.95 337.875 344.2Q337.5625 344.4344 337.5625 344.7625Q337.5625 344.96564 337.6875 345.1219Q337.82812 345.29376 338.09375 345.40314Q338.25 345.46564 339.03125 345.66876Q340.15625 345.98126 340.59375 346.16876Q341.03125 346.35626 341.28125 346.71564Q341.53125 347.075 341.53125 347.6219Q341.53125 348.15314 341.21875 348.6219Q340.92188 349.075 340.34375 349.34064Q339.76562 349.59064 339.03125 349.59064Q337.8125 349.59064 337.17188 349.09064Q336.54688 348.575 336.375 347.59064ZM347.04688 347.45L348.14062 347.575Q347.89062 348.52814 347.1875 349.0594Q346.48438 349.59064 345.40625 349.59064Q344.04688 349.59064 343.23438 348.7469Q342.4375 347.90314 342.4375 346.3875Q342.4375 344.825 343.25 343.96564Q344.0625 343.09064 345.34375 343.09064Q346.59375 343.09064 347.375 343.9344Q348.17188 344.77814 348.17188 346.325Q348.17188 346.41876 348.17188 346.60626L343.53125 346.60626Q343.59375 347.6375 344.10938 348.1844Q344.625 348.71564 345.40625 348.71564Q345.98438 348.71564 346.39062 348.41876Q346.8125 348.10626 347.04688 347.45ZM343.59375 345.7469L347.0625 345.7469Q347.0 344.95 346.67188 344.5594Q346.15625 343.95 345.35938 343.95Q344.625 343.95 344.125 344.4344Q343.64062 344.91876 343.59375 345.7469ZM352.09375 348.5125L352.25 349.4344Q351.79688 349.52814 351.45312 349.52814Q350.875 349.52814 350.5625 349.35626Q350.25 349.16876 350.10938 348.8719Q349.98438 348.575 349.98438 347.6219L349.98438 344.04376L349.21875 344.04376L349.21875 343.23126L349.98438 343.23126L349.98438 341.6844L351.03125 341.0594L351.03125 343.23126L352.09375 343.23126L352.09375 344.04376L351.03125 344.04376L351.03125 347.6844Q351.03125 348.1375 351.07812 348.2625Q351.14062 348.3875 351.26562 348.46564Q351.39062 348.54376 351.625 348.54376Q351.8125 348.54376 352.09375 348.5125Z" fill-rule="nonzero"/><path fill="#000000" d="M26.784388 237.8198L26.690638 236.7573Q27.346888 236.67917 27.753138 236.39792Q28.159388 236.11667 28.425013 235.53854Q28.675013 234.9448 28.675013 234.21042Q28.675013 233.5698 28.487513 233.0698Q28.284388 232.5698 27.956263 232.33542Q27.612513 232.08542 27.221888 232.08542Q26.815638 232.08542 26.518763 232.3198Q26.206263 232.55417 26.003138 233.08542Q25.862513 233.4448 25.581263 234.6323Q25.300013 235.80417 25.050013 236.27292Q24.721888 236.89792 24.253138 237.1948Q23.768763 237.49167 23.175013 237.49167Q22.534388 237.49167 21.971888 237.1323Q21.393763 236.7573 21.112513 236.05417Q20.815638 235.33542 20.815638 234.47604Q20.815638 233.52292 21.128138 232.78854Q21.425013 232.05417 22.034388 231.66354Q22.628138 231.27292 23.378138 231.24167L23.456263 232.33542Q22.643763 232.42917 22.237513 232.9448Q21.815638 233.4448 21.815638 234.42917Q21.815638 235.46042 22.190638 235.92917Q22.565638 236.39792 23.096888 236.39792Q23.565638 236.39792 23.862513 236.0698Q24.159388 235.74167 24.471888 234.36667Q24.784388 232.97604 25.018763 232.46042Q25.378138 231.71042 25.909388 231.35104Q26.425013 230.99167 27.128138 230.99167Q27.815638 230.99167 28.425013 231.3823Q29.018763 231.77292 29.362513 232.5073Q29.690638 233.24167 29.690638 234.16354Q29.690638 235.33542 29.362513 236.1323Q29.018763 236.91354 28.331263 237.36667Q27.643763 237.80417 26.784388 237.8198ZM29.550013 225.49167L28.628138 225.49167Q29.690638 226.22604 29.690638 227.47604Q29.690638 228.02292 29.487513 228.5073Q29.268763 228.97604 28.956263 229.21042Q28.628138 229.4448 28.159388 229.53854Q27.862513 229.60104 27.175013 229.60104L23.331263 229.60104L23.331263 228.53854L26.784388 228.53854Q27.596888 228.53854 27.893763 228.47604Q28.300013 228.3823 28.550013 228.0698Q28.784388 227.74167 28.784388 227.2573Q28.784388 226.78854 28.550013 226.3823Q28.300013 225.96042 27.878138 225.78854Q27.456263 225.60104 26.659388 225.60104L23.331263 225.60104L23.331263 224.55417L29.550013 224.55417L29.550013 225.49167ZM27.268763 218.5073L27.409388 217.47604Q28.471888 217.64792 29.081263 218.35104Q29.690638 219.05417 29.690638 220.0698Q29.690638 221.35104 28.862513 222.1323Q28.018763 222.89792 26.456263 222.89792Q25.456263 222.89792 24.706263 222.5698Q23.940638 222.22604 23.565638 221.55417Q23.190638 220.86667 23.190638 220.05417Q23.190638 219.05417 23.706263 218.41354Q24.206263 217.7573 25.159388 217.5698L25.315638 218.60104Q24.690638 218.74167 24.378138 219.11667Q24.050013 219.49167 24.050013 220.02292Q24.050013 220.8198 24.628138 221.3198Q25.190638 221.8198 26.425013 221.8198Q27.690638 221.8198 28.253138 221.33542Q28.815638 220.85104 28.815638 220.08542Q28.815638 219.46042 28.440638 219.05417Q28.065638 218.6323 27.268763 218.5073ZM27.268763 212.5073L27.409388 211.47604Q28.471888 211.64792 29.081263 212.35104Q29.690638 213.05417 29.690638 214.0698Q29.690638 215.35104 28.862513 216.1323Q28.018763 216.89792 26.456263 216.89792Q25.456263 216.89792 24.706263 216.5698Q23.940638 216.22604 23.565638 215.55417Q23.190638 214.86667 23.190638 214.05417Q23.190638 213.05417 23.706263 212.41354Q24.206263 211.7573 25.159388 211.5698L25.315638 212.60104Q24.690638 212.74167 24.378138 213.11667Q24.050013 213.49167 24.050013 214.02292Q24.050013 214.8198 24.628138 215.3198Q25.190638 215.8198 26.425013 215.8198Q27.690638 215.8198 28.253138 215.33542Q28.815638 214.85104 28.815638 214.08542Q28.815638 213.46042 28.440638 213.05417Q28.065638 212.6323 27.268763 212.5073ZM27.550013 206.3198L27.675013 205.22604Q28.628138 205.47604 29.159388 206.17917Q29.690638 206.8823 29.690638 207.96042Q29.690638 209.3198 28.846888 210.1323Q28.003138 210.92917 26.487513 210.92917Q24.925013 210.92917 24.065638 210.11667Q23.190638 209.30417 23.190638 208.02292Q23.190638 206.77292 24.034388 205.99167Q24.878138 205.1948 26.425013 205.1948Q26.518763 205.1948 26.706263 205.1948L26.706263 209.83542Q27.737513 209.77292 28.284388 209.2573Q28.815638 208.74167 28.815638 207.96042Q28.815638 207.3823 28.518763 206.97604Q28.206263 206.55417 27.550013 206.3198ZM25.846888 209.77292L25.846888 206.30417Q25.050013 206.36667 24.659388 206.6948Q24.050013 207.21042 24.050013 208.0073Q24.050013 208.74167 24.534388 209.24167Q25.018763 209.72604 25.846888 209.77292ZM27.690638 203.99167L27.534388 202.96042Q28.159388 202.86667 28.487513 202.47604Q28.815638 202.0698 28.815638 201.33542Q28.815638 200.61667 28.534388 200.27292Q28.237513 199.91354 27.831263 199.91354Q27.471888 199.91354 27.268763 200.22604Q27.128138 200.4448 26.909388 201.30417Q26.612513 202.46042 26.409388 202.91354Q26.190638 203.35104 25.815638 203.58542Q25.440638 203.8198 24.971888 203.8198Q24.565638 203.8198 24.206263 203.6323Q23.846888 203.4448 23.612513 203.11667Q23.440638 202.86667 23.315638 202.4448Q23.190638 202.02292 23.190638 201.52292Q23.190638 200.80417 23.409388 200.2573Q23.612513 199.6948 23.971888 199.42917Q24.331263 199.16354 24.925013 199.0698L25.065638 200.10104Q24.596888 200.16354 24.331263 200.5073Q24.050013 200.83542 24.050013 201.46042Q24.050013 202.17917 24.300013 202.49167Q24.534388 202.80417 24.862513 202.80417Q25.065638 202.80417 25.221888 202.67917Q25.393763 202.53854 25.503138 202.27292Q25.565638 202.11667 25.768763 201.33542Q26.081263 200.21042 26.268763 199.77292Q26.456263 199.33542 26.815638 199.08542Q27.175013 198.83542 27.721888 198.83542Q28.253138 198.83542 28.721888 199.14792Q29.175013 199.4448 29.440638 200.02292Q29.690638 200.60104 29.690638 201.33542Q29.690638 202.55417 29.190638 203.1948Q28.675013 203.8198 27.690638 203.99167ZM27.690638 197.99167L27.534388 196.96042Q28.159388 196.86667 28.487513 196.47604Q28.815638 196.0698 28.815638 195.33542Q28.815638 194.61667 28.534388 194.27292Q28.237513 193.91354 27.831263 193.91354Q27.471888 193.91354 27.268763 194.22604Q27.128138 194.4448 26.909388 195.30417Q26.612513 196.46042 26.409388 196.91354Q26.190638 197.35104 25.815638 197.58542Q25.440638 197.8198 24.971888 197.8198Q24.565638 197.8198 24.206263 197.6323Q23.846888 197.4448 23.612513 197.11667Q23.440638 196.86667 23.315638 196.4448Q23.190638 196.02292 23.190638 195.52292Q23.190638 194.80417 23.409388 194.2573Q23.612513 193.6948 23.971888 193.42917Q24.331263 193.16354 24.925013 193.0698L25.065638 194.10104Q24.596888 194.16354 24.331263 194.5073Q24.050013 194.83542 24.050013 195.46042Q24.050013 196.17917 24.300013 196.49167Q24.534388 196.80417 24.862513 196.80417Q25.065638 196.80417 25.221888 196.67917Q25.393763 196.53854 25.503138 196.27292Q25.565638 196.11667 25.768763 195.33542Q26.081263 194.21042 26.268763 193.77292Q26.456263 193.33542 26.815638 193.08542Q27.175013 192.83542 27.721888 192.83542Q28.253138 192.83542 28.721888 193.14792Q29.175013 193.4448 29.440638 194.02292Q29.690638 194.60104 29.690638 195.33542Q29.690638 196.55417 29.190638 197.1948Q28.675013 197.8198 27.690638 197.99167ZM29.550013 188.42917L20.956263 188.42917L20.956263 184.61667Q20.956263 183.46042 21.190638 182.86667Q21.425013 182.27292 22.018763 181.91354Q22.596888 181.55417 23.300013 181.55417Q24.221888 181.55417 24.846888 182.14792Q25.471888 182.74167 25.643763 183.97604Q25.862513 183.52292 26.065638 183.28854Q26.518763 182.78854 27.206263 182.35104L29.550013 180.85104L29.550013 182.28854L27.768763 183.41354Q26.987513 183.91354 26.581263 184.24167Q26.175013 184.55417 26.018763 184.8198Q25.846888 185.0698 25.768763 185.33542Q25.737513 185.52292 25.737513 185.96042L25.737513 187.28854L29.550013 187.28854L29.550013 188.42917ZM24.753138 187.28854L24.753138 184.83542Q24.753138 184.0698 24.596888 183.6323Q24.425013 183.17917 24.081263 182.96042Q23.721888 182.72604 23.300013 182.72604Q22.690638 182.72604 22.300013 183.17917Q21.909388 183.61667 21.909388 184.5698L21.909388 187.28854L24.753138 187.28854ZM28.784388 175.5073Q29.284388 176.10104 29.487513 176.64792Q29.690638 177.17917 29.690638 177.80417Q29.690638 178.83542 29.190638 179.3823Q28.690638 179.92917 27.909388 179.92917Q27.456263 179.92917 27.081263 179.72604Q26.690638 179.52292 26.471888 179.17917Q26.237513 178.83542 26.128138 178.41354Q26.034388 178.11667 25.956263 177.47604Q25.815638 176.21042 25.596888 175.60104Q25.378138 175.60104 25.331263 175.60104Q24.675013 175.60104 24.409388 175.89792Q24.065638 176.30417 24.065638 177.10104Q24.065638 177.83542 24.331263 178.1948Q24.581263 178.55417 25.237513 178.72604L25.096888 179.7573Q24.440638 179.61667 24.034388 179.28854Q23.628138 178.96042 23.409388 178.35104Q23.190638 177.74167 23.190638 176.9448Q23.190638 176.14792 23.378138 175.64792Q23.565638 175.14792 23.846888 174.91354Q24.128138 174.67917 24.565638 174.58542Q24.831263 174.53854 25.534388 174.53854L26.940638 174.53854Q28.409388 174.53854 28.800013 174.47604Q29.190638 174.39792 29.550013 174.1948L29.550013 175.30417Q29.221888 175.46042 28.784388 175.5073ZM26.425013 175.60104Q26.659388 176.17917 26.831263 177.3198Q26.925013 177.97604 27.050013 178.24167Q27.159388 178.5073 27.378138 178.66354Q27.596888 178.80417 27.878138 178.80417Q28.300013 178.80417 28.581263 178.49167Q28.862513 178.16354 28.862513 177.55417Q28.862513 176.9448 28.596888 176.47604Q28.331263 175.99167 27.862513 175.77292Q27.503138 175.60104 26.815638 175.60104L26.425013 175.60104ZM28.612513 170.27292L29.534388 170.11667Q29.628138 170.5698 29.628138 170.91354Q29.628138 171.49167 29.456263 171.80417Q29.268763 172.11667 28.971888 172.2573Q28.675013 172.3823 27.721888 172.3823L24.143763 172.3823L24.143763 173.14792L23.331263 173.14792L23.331263 172.3823L21.784388 172.3823L21.159388 171.33542L23.331263 171.33542L23.331263 170.27292L24.143763 170.27292L24.143763 171.33542L27.784388 171.33542Q28.237513 171.33542 28.362513 171.28854Q28.487513 171.22604 28.565638 171.10104Q28.643763 170.97604 28.643763 170.74167Q28.643763 170.55417 28.612513 170.27292ZM27.550013 165.3198L27.675013 164.22604Q28.628138 164.47604 29.159388 165.17917Q29.690638 165.8823 29.690638 166.96042Q29.690638 168.3198 28.846888 169.1323Q28.003138 169.92917 26.487513 169.92917Q24.925013 169.92917 24.065638 169.11667Q23.190638 168.30417 23.190638 167.02292Q23.190638 165.77292 24.034388 164.99167Q24.878138 164.1948 26.425013 164.1948Q26.518763 164.1948 26.706263 164.1948L26.706263 168.83542Q27.737513 168.77292 28.284388 168.2573Q28.815638 167.74167 28.815638 166.96042Q28.815638 166.3823 28.518763 165.97604Q28.206263 165.55417 27.550013 165.3198ZM25.846888 168.77292L25.846888 165.30417Q25.050013 165.36667 24.659388 165.6948Q24.050013 166.21042 24.050013 167.0073Q24.050013 167.74167 24.534388 168.24167Q25.018763 168.72604 25.846888 168.77292Z" fill-rule="nonzero"/><path fill="#000000" d="M68.05 300.21564Q68.05 298.6844 68.3625 297.7625Q68.675 296.825 69.28438 296.325Q69.90938 295.825 70.84688 295.825Q71.53438 295.825 72.05 296.10626Q72.58125 296.3875 72.925 296.91876Q73.26875 297.4344 73.45625 298.1844Q73.64375 298.9344 73.64375 300.21564Q73.64375 301.73126 73.33125 302.65314Q73.03438 303.575 72.40938 304.09064Q71.8 304.59064 70.84688 304.59064Q69.6125 304.59064 68.89375 303.7Q68.05 302.6375 68.05 300.21564ZM69.12813 300.21564Q69.12813 302.325 69.62813 303.02814Q70.12813 303.73126 70.84688 303.73126Q71.58125 303.73126 72.06563 303.02814Q72.56563 302.325 72.56563 300.21564Q72.56563 298.09064 72.06563 297.40314Q71.58125 296.7 70.83125 296.7Q70.1125 296.7 69.675 297.3094Q69.12813 298.09064 69.12813 300.21564Z" fill-rule="nonzero"/><path fill="#000000" d="M51.05 247.17397Q51.05 245.64272 51.3625 244.72084Q51.675 243.78334 52.284374 243.28334Q52.909374 242.78334 53.846874 242.78334Q54.534374 242.78334 55.05 243.06459Q55.58125 243.34584 55.925 243.87709Q56.26875 244.39272 56.45625 245.14272Q56.64375 245.89272 56.64375 247.17397Q56.64375 248.68959 56.33125 249.61147Q56.034374 250.53334 55.409374 251.04897Q54.8 251.54897 53.846874 251.54897Q52.6125 251.54897 51.89375 250.65834Q51.05 249.59584 51.05 247.17397ZM52.128124 247.17397Q52.128124 249.28334 52.628124 249.98647Q53.128124 250.68959 53.846874 250.68959Q54.58125 250.68959 55.065624 249.98647Q55.565624 249.28334 55.565624 247.17397Q55.565624 245.04897 55.065624 244.36147Q54.58125 243.65834 53.83125 243.65834Q53.1125 243.65834 52.675 244.26772Q52.128124 245.04897 52.128124 247.17397ZM58.64375 251.40834L58.64375 250.20522L59.846874 250.20522L59.846874 251.40834L58.64375 251.40834ZM66.59688 250.39272L66.59688 251.40834L60.909374 251.40834Q60.909374 251.03334 61.034374 250.67397Q61.253124 250.09584 61.721874 249.53334Q62.20625 248.97084 63.1125 248.23647Q64.51875 247.08022 65.00313 246.40834Q65.50313 245.73647 65.50313 245.14272Q65.50313 244.51772 65.05 244.09584Q64.59688 243.65834 63.878124 243.65834Q63.1125 243.65834 62.659374 244.11147Q62.20625 244.56459 62.190624 245.37709L61.1125 245.26772Q61.221874 244.04897 61.940624 243.42397Q62.675 242.78334 63.909374 242.78334Q65.14375 242.78334 65.8625 243.47084Q66.58125 244.15834 66.58125 245.17397Q66.58125 245.68959 66.3625 246.18959Q66.15938 246.67397 65.65938 247.23647Q65.175 247.78334 64.05 248.73647Q63.096874 249.53334 62.815624 249.83022Q62.55 250.11147 62.378124 250.39272L66.59688 250.39272ZM68.05 249.15834L69.15938 249.06459Q69.28438 249.87709 69.72188 250.28334Q70.175 250.68959 70.81563 250.68959Q71.56563 250.68959 72.09688 250.11147Q72.62813 249.53334 72.62813 248.59584Q72.62813 247.68959 72.1125 247.17397Q71.6125 246.64272 70.78438 246.64272Q70.28438 246.64272 69.8625 246.87709Q69.45625 247.11147 69.22188 247.47084L68.2375 247.34584L69.06563 242.93959L73.34688 242.93959L73.34688 243.93959L69.90938 243.93959L69.45625 246.25209Q70.22188 245.70522 71.06563 245.70522Q72.19063 245.70522 72.95625 246.48647Q73.7375 247.26772 73.7375 248.50209Q73.7375 249.65834 73.06563 250.51772Q72.2375 251.54897 70.81563 251.54897Q69.64375 251.54897 68.89375 250.89272Q68.15938 250.23647 68.05 249.15834Z" fill-rule="nonzero"/><path fill="#000000" d="M58.05 194.1323Q58.05 192.60104 58.3625 191.67917Q58.675 190.74167 59.284374 190.24167Q59.909374 189.74167 60.846874 189.74167Q61.534374 189.74167 62.05 190.02292Q62.58125 190.30417 62.925 190.83542Q63.26875 191.35104 63.45625 192.10104Q63.64375 192.85104 63.64375 194.1323Q63.64375 195.64792 63.33125 196.5698Q63.034374 197.49167 62.409374 198.0073Q61.8 198.5073 60.846874 198.5073Q59.6125 198.5073 58.89375 197.61667Q58.05 196.55417 58.05 194.1323ZM59.128124 194.1323Q59.128124 196.24167 59.628124 196.9448Q60.128124 197.64792 60.846874 197.64792Q61.58125 197.64792 62.065624 196.9448Q62.565624 196.24167 62.565624 194.1323Q62.565624 192.0073 62.065624 191.3198Q61.58125 190.61667 60.83125 190.61667Q60.1125 190.61667 59.675 191.22604Q59.128124 192.0073 59.128124 194.1323ZM65.64375 198.36667L65.64375 197.16354L66.84688 197.16354L66.84688 198.36667L65.64375 198.36667ZM68.05 196.11667L69.15938 196.02292Q69.28438 196.83542 69.72188 197.24167Q70.175 197.64792 70.81563 197.64792Q71.56563 197.64792 72.09688 197.0698Q72.62813 196.49167 72.62813 195.55417Q72.62813 194.64792 72.1125 194.1323Q71.6125 193.60104 70.78438 193.60104Q70.28438 193.60104 69.8625 193.83542Q69.45625 194.0698 69.22188 194.42917L68.2375 194.30417L69.06563 189.89792L73.34688 189.89792L73.34688 190.89792L69.90938 190.89792L69.45625 193.21042Q70.22188 192.66354 71.06563 192.66354Q72.19063 192.66354 72.95625 193.4448Q73.7375 194.22604 73.7375 195.46042Q73.7375 196.61667 73.06563 197.47604Q72.2375 198.5073 70.81563 198.5073Q69.64375 198.5073 68.89375 197.85104Q68.15938 197.1948 68.05 196.11667Z" fill-rule="nonzero"/><path fill="#000000" d="M51.05 141.09062Q51.05 139.55937 51.3625 138.6375Q51.675 137.7 52.284374 137.2Q52.909374 136.7 53.846874 136.7Q54.534374 136.7 55.05 136.98125Q55.58125 137.2625 55.925 137.79375Q56.26875 138.30937 56.45625 139.05937Q56.64375 139.80937 56.64375 141.09062Q56.64375 142.60625 56.33125 143.52812Q56.034374 144.45 55.409374 144.96562Q54.8 145.46562 53.846874 145.46562Q52.6125 145.46562 51.89375 144.575Q51.05 143.5125 51.05 141.09062ZM52.128124 141.09062Q52.128124 143.2 52.628124 143.90312Q53.128124 144.60625 53.846874 144.60625Q54.58125 144.60625 55.065624 143.90312Q55.565624 143.2 55.565624 141.09062Q55.565624 138.96562 55.065624 138.27812Q54.58125 137.575 53.83125 137.575Q53.1125 137.575 52.675 138.18437Q52.128124 138.96562 52.128124 141.09062ZM58.64375 145.325L58.64375 144.12187L59.846874 144.12187L59.846874 145.325L58.64375 145.325ZM61.1125 137.85625L61.1125 136.84062L66.675 136.84062L66.675 137.66875Q65.8625 138.54375 65.05 139.99687Q64.25313 141.43437 63.815624 142.96562Q63.4875 144.04375 63.409374 145.325L62.315624 145.325Q62.33125 144.30937 62.70625 142.87187Q63.096874 141.43437 63.8 140.10625Q64.51875 138.77812 65.33125 137.85625L61.1125 137.85625ZM68.05 143.075L69.15938 142.98125Q69.28438 143.79375 69.72188 144.2Q70.175 144.60625 70.81563 144.60625Q71.56563 144.60625 72.09688 144.02812Q72.62813 143.45 72.62813 142.5125Q72.62813 141.60625 72.1125 141.09062Q71.6125 140.55937 70.78438 140.55937Q70.28438 140.55937 69.8625 140.79375Q69.45625 141.02812 69.22188 141.3875L68.2375 141.2625L69.06563 136.85625L73.34688 136.85625L73.34688 137.85625L69.90938 137.85625L69.45625 140.16875Q70.22188 139.62187 71.06563 139.62187Q72.19063 139.62187 72.95625 140.40312Q73.7375 141.18437 73.7375 142.41875Q73.7375 143.575 73.06563 144.43437Q72.2375 145.46562 70.81563 145.46562Q69.64375 145.46562 68.89375 144.80937Q68.15938 144.15312 68.05 143.075Z" fill-rule="nonzero"/><path fill="#000000" d="M72.01875 92.28333L70.97188 92.28333L70.97188 85.56458Q70.58125 85.92396 69.95625 86.29896Q69.34688 86.65833 68.8625 86.83021L68.8625 85.81458Q69.7375 85.39271 70.39375 84.81458Q71.06563 84.22083 71.34688 83.65833L72.01875 83.65833L72.01875 92.28333Z" fill-rule="nonzero"/><path fill="#000000" d="M108.79527 315.1844L109.85777 315.04376Q110.02965 315.9344 110.46715 316.34064Q110.90465 316.73126 111.52965 316.73126Q112.27965 316.73126 112.79527 316.21564Q113.3109 315.7 113.3109 314.9344Q113.3109 314.21564 112.82652 313.7469Q112.35777 313.2625 111.6234 313.2625Q111.32652 313.2625 110.8734 313.3875L110.9984 312.45Q111.10777 312.46564 111.17027 312.46564Q111.84215 312.46564 112.3734 312.1219Q112.92027 311.7625 112.92027 311.02814Q112.92027 310.45 112.52965 310.075Q112.13902 309.6844 111.51402 309.6844Q110.90465 309.6844 110.48277 310.075Q110.07652 310.46564 109.96715 311.23126L108.90465 311.04376Q109.09215 309.9969 109.77965 309.41876Q110.46715 308.825 111.48277 308.825Q112.1859 308.825 112.77965 309.1375Q113.3734 309.4344 113.6859 309.95Q113.9984 310.46564 113.9984 311.0594Q113.9984 311.60626 113.70152 312.075Q113.40465 312.52814 112.82652 312.79376Q113.57652 312.96564 113.9984 313.52814Q114.42027 314.075 114.42027 314.91876Q114.42027 316.04376 113.59215 316.825Q112.77965 317.60626 111.52965 317.60626Q110.40465 317.60626 109.65465 316.9344Q108.90465 316.2469 108.79527 315.1844ZM115.67027 314.8719L115.67027 313.8094L118.92027 313.8094L118.92027 314.8719L115.67027 314.8719ZM123.76402 317.45L122.71715 317.45L122.71715 310.73126Q122.32652 311.09064 121.70152 311.46564Q121.09215 311.825 120.60777 311.9969L120.60777 310.98126Q121.48277 310.5594 122.13902 309.98126Q122.8109 309.3875 123.09215 308.825L123.76402 308.825L123.76402 317.45ZM126.67027 314.8719L126.67027 313.8094L129.92027 313.8094L129.92027 314.8719L126.67027 314.8719ZM134.76402 317.45L133.71715 317.45L133.71715 310.73126Q133.32652 311.09064 132.70152 311.46564Q132.09215 311.825 131.60777 311.9969L131.60777 310.98126Q132.48277 310.5594 133.13902 309.98126Q133.8109 309.3875 134.09215 308.825L134.76402 308.825L134.76402 317.45ZM137.67027 314.8719L137.67027 313.8094L140.92027 313.8094L140.92027 314.8719L137.67027 314.8719ZM145.76402 317.45L144.71715 317.45L144.71715 310.73126Q144.32652 311.09064 143.70152 311.46564Q143.09215 311.825 142.60777 311.9969L142.60777 310.98126Q143.48277 310.5594 144.13902 309.98126Q144.8109 309.3875 145.09215 308.825L145.76402 308.825L145.76402 317.45ZM148.67027 314.8719L148.67027 313.8094L151.92027 313.8094L151.92027 314.8719L148.67027 314.8719ZM156.76402 317.45L155.71715 317.45L155.71715 310.73126Q155.32652 311.09064 154.70152 311.46564Q154.09215 311.825 153.60777 311.9969L153.60777 310.98126Q154.48277 310.5594 155.13902 309.98126Q155.8109 309.3875 156.09215 308.825L156.76402 308.825L156.76402 317.45Z" fill-rule="nonzero"/><path fill="#000000" d="M196.55217 317.45L196.55217 315.3875L192.83342 315.3875L192.83342 314.41876L196.7553 308.85626L197.61467 308.85626L197.61467 314.41876L198.77092 314.41876L198.77092 315.3875L197.61467 315.3875L197.61467 317.45L196.55217 317.45ZM196.55217 314.41876L196.55217 310.5594L193.86467 314.41876L196.55217 314.41876ZM200.05217 314.8719L200.05217 313.8094L203.30217 313.8094L203.30217 314.8719L200.05217 314.8719ZM208.14592 317.45L207.09904 317.45L207.09904 310.73126Q206.70842 311.09064 206.08342 311.46564Q205.47404 311.825 204.98967 311.9969L204.98967 310.98126Q205.86467 310.5594 206.52092 309.98126Q207.1928 309.3875 207.47404 308.825L208.14592 308.825L208.14592 317.45ZM211.05217 314.8719L211.05217 313.8094L214.30217 313.8094L214.30217 314.8719L211.05217 314.8719ZM219.14592 317.45L218.09904 317.45L218.09904 310.73126Q217.70842 311.09064 217.08342 311.46564Q216.47404 311.825 215.98967 311.9969L215.98967 310.98126Q216.86467 310.5594 217.52092 309.98126Q218.1928 309.3875 218.47404 308.825L219.14592 308.825L219.14592 317.45ZM222.05217 314.8719L222.05217 313.8094L225.30217 313.8094L225.30217 314.8719L222.05217 314.8719ZM230.14592 317.45L229.09904 317.45L229.09904 310.73126Q228.70842 311.09064 228.08342 311.46564Q227.47404 311.825 226.98967 311.9969L226.98967 310.98126Q227.86467 310.5594 228.52092 309.98126Q229.1928 309.3875 229.47404 308.825L230.14592 308.825L230.14592 317.45Z" fill-rule="nonzero"/><path fill="#000000" d="M277.55905 315.2L278.66843 315.10626Q278.79343 315.91876 279.23093 316.325Q279.68405 316.73126 280.32468 316.73126Q281.07468 316.73126 281.60593 316.15314Q282.13718 315.575 282.13718 314.6375Q282.13718 313.73126 281.62155 313.21564Q281.12155 312.6844 280.29343 312.6844Q279.79343 312.6844 279.37155 312.91876Q278.9653 313.15314 278.73093 313.5125L277.74655 313.3875L278.57468 308.98126L282.85593 308.98126L282.85593 309.98126L279.41843 309.98126L278.9653 312.29376Q279.73093 311.7469 280.57468 311.7469Q281.69968 311.7469 282.4653 312.52814Q283.24655 313.3094 283.24655 314.54376Q283.24655 315.7 282.57468 316.5594Q281.74655 317.59064 280.32468 317.59064Q279.1528 317.59064 278.4028 316.9344Q277.66843 316.27814 277.55905 315.2ZM284.43405 314.8719L284.43405 313.8094L287.68405 313.8094L287.68405 314.8719L284.43405 314.8719ZM292.5278 317.45L291.48093 317.45L291.48093 310.73126Q291.0903 311.09064 290.4653 311.46564Q289.85593 311.825 289.37155 311.9969L289.37155 310.98126Q290.24655 310.5594 290.9028 309.98126Q291.57468 309.3875 291.85593 308.825L292.5278 308.825L292.5278 317.45ZM295.43405 314.8719L295.43405 313.8094L298.68405 313.8094L298.68405 314.8719L295.43405 314.8719ZM303.5278 317.45L302.48093 317.45L302.48093 310.73126Q302.0903 311.09064 301.4653 311.46564Q300.85593 311.825 300.37155 311.9969L300.37155 310.98126Q301.24655 310.5594 301.9028 309.98126Q302.57468 309.3875 302.85593 308.825L303.5278 308.825L303.5278 317.45Z" fill-rule="nonzero"/><path fill="#000000" d="M367.4097 310.96564L366.36282 311.04376Q366.2222 310.41876 365.9722 310.1375Q365.5347 309.6844 364.9097 309.6844Q364.4097 309.6844 364.01907 309.96564Q363.5347 310.34064 363.23782 311.04376Q362.95657 311.73126 362.94095 313.0125Q363.31595 312.4344 363.86282 312.15314Q364.42532 311.8719 365.0347 311.8719Q366.08157 311.8719 366.81595 312.65314Q367.56595 313.4344 367.56595 314.65314Q367.56595 315.46564 367.20657 316.16876Q366.86282 316.85626 366.25345 317.23126Q365.64407 317.59064 364.87845 317.59064Q363.55032 317.59064 362.7222 316.6219Q361.89407 315.65314 361.89407 313.4344Q361.89407 310.9344 362.81595 309.8094Q363.61282 308.825 364.9722 308.825Q365.98782 308.825 366.62845 309.40314Q367.2847 309.96564 367.4097 310.96564ZM363.11282 314.66876Q363.11282 315.21564 363.33157 315.71564Q363.56595 316.2 363.9722 316.46564Q364.39407 316.73126 364.86282 316.73126Q365.51907 316.73126 366.00345 316.2Q366.48782 315.65314 366.48782 314.73126Q366.48782 313.84064 366.00345 313.325Q365.5347 312.8094 364.81595 312.8094Q364.0972 312.8094 363.5972 313.325Q363.11282 313.84064 363.11282 314.66876ZM368.81595 314.8719L368.81595 313.8094L372.06595 313.8094L372.06595 314.8719L368.81595 314.8719ZM376.9097 317.45L375.86282 317.45L375.86282 310.73126Q375.4722 311.09064 374.8472 311.46564Q374.23782 311.825 373.75345 311.9969L373.75345 310.98126Q374.62845 310.5594 375.2847 309.98126Q375.95657 309.3875 376.23782 308.825L376.9097 308.825L376.9097 317.45Z" fill-rule="nonzero"/><path fill="#000000" d="M440.82285 315.2L441.93222 315.10626Q442.05722 315.91876 442.49472 316.325Q442.94785 316.73126 443.58847 316.73126Q444.33847 316.73126 444.86972 316.15314Q445.40097 315.575 445.40097 314.6375Q445.40097 313.73126 444.88535 313.21564Q444.38535 312.6844 443.55722 312.6844Q443.05722 312.6844 442.63535 312.91876Q442.2291 313.15314 441.99472 313.5125L441.01035 313.3875L441.83847 308.98126L446.11972 308.98126L446.11972 309.98126L442.68222 309.98126L442.2291 312.29376Q442.99472 311.7469 443.83847 311.7469Q444.96347 311.7469 445.7291 312.52814Q446.51035 313.3094 446.51035 314.54376Q446.51035 315.7 445.83847 316.5594Q445.01035 317.59064 443.58847 317.59064Q442.4166 317.59064 441.6666 316.9344Q440.93222 316.27814 440.82285 315.2ZM447.69785 314.8719L447.69785 313.8094L450.94785 313.8094L450.94785 314.8719L447.69785 314.8719ZM457.36972 316.4344L457.36972 317.45L451.68222 317.45Q451.68222 317.075 451.80722 316.71564Q452.02597 316.1375 452.49472 315.575Q452.9791 315.0125 453.88535 314.27814Q455.2916 313.1219 455.77597 312.45Q456.27597 311.77814 456.27597 311.1844Q456.27597 310.5594 455.82285 310.1375Q455.36972 309.7 454.65097 309.7Q453.88535 309.7 453.43222 310.15314Q452.9791 310.60626 452.96347 311.41876L451.88535 311.3094Q451.99472 310.09064 452.71347 309.46564Q453.44785 308.825 454.68222 308.825Q455.9166 308.825 456.63535 309.5125Q457.3541 310.2 457.3541 311.21564Q457.3541 311.73126 457.13535 312.23126Q456.93222 312.71564 456.43222 313.27814Q455.94785 313.825 454.82285 314.77814Q453.86972 315.575 453.58847 315.8719Q453.32285 316.15314 453.15097 316.4344L457.36972 316.4344Z" fill-rule="nonzero"/><path fill="#000000" d="M523.0797 317.45L523.0797 315.3875L519.36096 315.3875L519.36096 314.41876L523.28284 308.85626L524.1422 308.85626L524.1422 314.41876L525.29846 314.41876L525.29846 315.3875L524.1422 315.3875L524.1422 317.45L523.0797 317.45ZM523.0797 314.41876L523.0797 310.5594L520.3922 314.41876L523.0797 314.41876ZM526.5797 314.8719L526.5797 313.8094L529.8297 313.8094L529.8297 314.8719L526.5797 314.8719ZM530.7047 315.1844L531.7672 315.04376Q531.9391 315.9344 532.3766 316.34064Q532.8141 316.73126 533.4391 316.73126Q534.1891 316.73126 534.7047 316.21564Q535.22034 315.7 535.22034 314.9344Q535.22034 314.21564 534.73596 313.7469Q534.2672 313.2625 533.53284 313.2625Q533.23596 313.2625 532.78284 313.3875L532.90784 312.45Q533.0172 312.46564 533.0797 312.46564Q533.7516 312.46564 534.28284 312.1219Q534.8297 311.7625 534.8297 311.02814Q534.8297 310.45 534.4391 310.075Q534.04846 309.6844 533.42346 309.6844Q532.8141 309.6844 532.3922 310.075Q531.98596 310.46564 531.8766 311.23126L530.8141 311.04376Q531.0016 309.9969 531.6891 309.41876Q532.3766 308.825 533.3922 308.825Q534.09534 308.825 534.6891 309.1375Q535.28284 309.4344 535.59534 309.95Q535.90784 310.46564 535.90784 311.0594Q535.90784 311.60626 535.61096 312.075Q535.3141 312.52814 534.73596 312.79376Q535.48596 312.96564 535.90784 313.52814Q536.3297 314.075 536.3297 314.91876Q536.3297 316.04376 535.5016 316.825Q534.6891 317.60626 533.4391 317.60626Q532.3141 317.60626 531.5641 316.9344Q530.8141 316.2469 530.7047 315.1844Z" fill-rule="nonzero"/><path fill="#4285f4" d="M88.0 56.916668C88.0 56.364384 88.447716 55.916668 89.0 55.916668L99.0 55.916668C99.552284 55.916668 100.0 56.364384 100.0 56.916668L100.0 66.916664C100.0 67.46895 99.552284 67.916664 99.0 67.916664L89.0 67.916664C88.447716 67.916664 88.0 67.46895 88.0 66.916664Z" fill-rule="nonzero"/><path fill="#1a1a1a" d="M108.921875 65.916664L108.921875 57.322914L111.890625 57.322914Q112.890625 57.322914 113.421875 57.447914Q114.15625 57.61979 114.671875 58.05729Q115.359375 58.635414 115.6875 59.541664Q116.03125 60.43229 116.03125 61.572914Q116.03125 62.55729 115.796875 63.30729Q115.578125 64.05729 115.21875 64.55729Q114.859375 65.05729 114.421875 65.33854Q114.0 65.61979 113.40625 65.77604Q112.8125 65.916664 112.03125 65.916664L108.921875 65.916664ZM110.0625 64.90104L111.890625 64.90104Q112.75 64.90104 113.234375 64.74479Q113.71875 64.58854 114.0 64.291664Q114.40625 63.90104 114.625 63.21354Q114.859375 62.52604 114.859375 61.55729Q114.859375 60.21354 114.40625 59.49479Q113.96875 58.760414 113.34375 58.510414Q112.875 58.33854 111.875 58.33854L110.0625 58.33854L110.0625 64.90104ZM124.4375 64.99479Q125.234375 65.541664 125.890625 65.791664L125.5625 66.58854Q124.640625 66.24479 123.71875 65.52604Q122.765625 66.05729 121.609375 66.05729Q120.4375 66.05729 119.484375 65.49479Q118.546875 64.93229 118.03125 63.916664Q117.515625 62.90104 117.515625 61.61979Q117.515625 60.354164 118.03125 59.30729Q118.546875 58.260414 119.5 57.71354Q120.453125 57.166664 121.625 57.166664Q122.8125 57.166664 123.765625 57.74479Q124.734375 58.30729 125.234375 59.322914Q125.734375 60.33854 125.734375 61.61979Q125.734375 62.68229 125.40625 63.52604Q125.09375 64.36979 124.4375 64.99479ZM121.9375 63.541664Q122.921875 63.822914 123.5625 64.36979Q124.5625 63.447914 124.5625 61.61979Q124.5625 60.572914 124.203125 59.791664Q123.84375 59.010414 123.15625 58.58854Q122.484375 58.15104 121.640625 58.15104Q120.359375 58.15104 119.515625 59.02604Q118.6875 59.885414 118.6875 61.61979Q118.6875 63.291664 119.515625 64.197914Q120.34375 65.08854 121.640625 65.08854Q122.25 65.08854 122.78125 64.854164Q122.25 64.510414 121.65625 64.36979L121.9375 63.541664ZM126.921875 65.916664L126.921875 57.322914L128.07812 57.322914L132.59375 64.072914L132.59375 57.322914L133.6875 57.322914L133.6875 65.916664L132.51562 65.916664L128.0 59.166664L128.0 65.916664L126.921875 65.916664ZM141.0 64.52604L141.0 62.166664L138.67188 62.166664L138.67188 61.18229L141.0 61.18229L141.0 58.854164L142.0 58.854164L142.0 61.18229L144.34375 61.18229L144.34375 62.166664L142.0 62.166664L142.0 64.52604L141.0 64.52604ZM148.95312 65.916664L148.95312 57.322914L155.15625 57.322914L155.15625 58.33854L150.09375 58.33854L150.09375 60.96354L154.84375 60.96354L154.84375 61.979164L150.09375 61.979164L150.09375 64.90104L155.35938 64.90104L155.35938 65.916664L148.95312 65.916664ZM156.79688 65.916664L156.79688 59.697914L157.73438 59.697914L157.73438 60.572914Q158.42188 59.55729 159.71875 59.55729Q160.28125 59.55729 160.75 59.760414Q161.23438 59.96354 161.46875 60.291664Q161.70312 60.61979 161.79688 61.05729Q161.84375 61.354164 161.84375 62.08854L161.84375 65.916664L160.79688 65.916664L160.79688 62.135414Q160.79688 61.479164 160.67188 61.166664Q160.54688 60.854164 160.23438 60.666664Q159.92188 60.46354 159.5 60.46354Q158.82812 60.46354 158.32812 60.90104Q157.84375 61.322914 157.84375 62.510414L157.84375 65.916664L156.79688 65.916664ZM167.875 65.916664L167.875 64.99479Q167.14062 66.05729 165.89062 66.05729Q165.34375 66.05729 164.85938 65.854164Q164.39062 65.635414 164.15625 65.322914Q163.92188 64.99479 163.82812 64.52604Q163.76562 64.229164 163.76562 63.541664L163.76562 59.697914L164.82812 59.697914L164.82812 63.15104Q164.82812 63.96354 164.89062 64.260414Q164.98438 64.666664 165.29688 64.916664Q165.625 65.15104 166.10938 65.15104Q166.57812 65.15104 166.98438 64.916664Q167.40625 64.666664 167.57812 64.24479Q167.76562 63.822914 167.76562 63.02604L167.76562 59.697914L168.8125 59.697914L168.8125 65.916664L167.875 65.916664ZM170.79688 65.916664L170.79688 59.697914L171.73438 59.697914L171.73438 60.572914Q172.03125 60.104164 172.51562 59.83854Q173.0 59.55729 173.625 59.55729Q174.3125 59.55729 174.75 59.83854Q175.20312 60.11979 175.375 60.635414Q176.125 59.55729 177.29688 59.55729Q178.23438 59.55729 178.71875 60.072914Q179.21875 60.572914 179.21875 61.65104L179.21875 65.916664L178.17188 65.916664L178.17188 61.99479Q178.17188 61.36979 178.0625 61.08854Q177.96875 60.80729 177.70312 60.635414Q177.4375 60.46354 177.0625 60.46354Q176.40625 60.46354 175.96875 60.90104Q175.54688 61.33854 175.54688 62.30729L175.54688 65.916664L174.48438 65.916664L174.48438 61.86979Q174.48438 61.166664 174.21875 60.822914Q173.96875 60.46354 173.39062 60.46354Q172.9375 60.46354 172.5625 60.697914Q172.1875 60.93229 172.01562 61.385414Q171.84375 61.83854 171.84375 62.68229L171.84375 65.916664L170.79688 65.916664ZM187.82812 65.916664L187.82812 65.135414Q187.23438 66.05729 186.09375 66.05729Q185.34375 66.05729 184.71875 65.65104Q184.09375 65.229164 183.75 64.49479Q183.40625 63.760414 183.40625 62.80729Q183.40625 61.885414 183.71875 61.11979Q184.03125 60.354164 184.65625 59.96354Q185.28125 59.55729 186.04688 59.55729Q186.60938 59.55729 187.04688 59.791664Q187.48438 60.02604 187.76562 60.40104L187.76562 57.322914L188.8125 57.322914L188.8125 65.916664L187.82812 65.916664ZM184.5 62.80729Q184.5 64.010414 185.0 64.604164Q185.5 65.18229 186.1875 65.18229Q186.875 65.18229 187.35938 64.61979Q187.84375 64.05729 187.84375 62.90104Q187.84375 61.61979 187.34375 61.02604Q186.85938 60.43229 186.14062 60.43229Q185.4375 60.43229 184.96875 61.010414Q184.5 61.572914 184.5 62.80729ZM196.04688 64.90104L196.04688 65.916664L190.35938 65.916664Q190.35938 65.541664 190.48438 65.18229Q190.70312 64.604164 191.17188 64.041664Q191.65625 63.479164 192.5625 62.74479Q193.96875 61.58854 194.45312 60.916664Q194.95312 60.24479 194.95312 59.65104Q194.95312 59.02604 194.5 58.604164Q194.04688 58.166664 193.32812 58.166664Q192.5625 58.166664 192.10938 58.61979Q191.65625 59.072914 191.64062 59.885414L190.5625 59.77604Q190.67188 58.55729 191.39062 57.93229Q192.125 57.291664 193.35938 57.291664Q194.59375 57.291664 195.3125 57.979164Q196.03125 58.666664 196.03125 59.68229Q196.03125 60.197914 195.8125 60.697914Q195.60938 61.18229 195.10938 61.74479Q194.625 62.291664 193.5 63.24479Q192.54688 64.041664 192.26562 64.33854Q192.0 64.61979 191.82812 64.90104L196.04688 64.90104Z" fill-rule="nonzero"/><path fill="#ea4335" d="M213.0 56.916668C213.0 56.364384 213.44771 55.916668 214.0 55.916668L224.0 55.916668C224.55229 55.916668 225.0 56.364384 225.0 56.916668L225.0 66.916664C225.0 67.46895 224.55229 67.916664 224.0 67.916664L214.0 67.916664C213.44771 67.916664 213.0 67.46895 213.0 66.916664Z" fill-rule="nonzero"/><path fill="#1a1a1a" d="M233.89062 65.916664L233.89062 57.322914L235.60938 57.322914L237.64062 63.40104Q237.92188 64.260414 238.04688 64.68229Q238.1875 64.21354 238.5 63.30729L240.5625 57.322914L242.09375 57.322914L242.09375 65.916664L241.0 65.916664L241.0 58.729164L238.5 65.916664L237.46875 65.916664L234.98438 58.604164L234.98438 65.916664L233.89062 65.916664ZM248.04688 63.916664L249.14062 64.041664Q248.89062 64.99479 248.1875 65.52604Q247.48438 66.05729 246.40625 66.05729Q245.04688 66.05729 244.23438 65.21354Q243.4375 64.36979 243.4375 62.854164Q243.4375 61.291664 244.25 60.43229Q245.0625 59.55729 246.34375 59.55729Q247.59375 59.55729 248.375 60.40104Q249.17188 61.24479 249.17188 62.791664Q249.17188 62.885414 249.17188 63.072914L244.53125 63.072914Q244.59375 64.104164 245.10938 64.65104Q245.625 65.18229 246.40625 65.18229Q246.98438 65.18229 247.39062 64.885414Q247.8125 64.572914 248.04688 63.916664ZM244.59375 62.21354L248.0625 62.21354Q248.0 61.416664 247.67188 61.02604Q247.15625 60.416664 246.35938 60.416664Q245.625 60.416664 245.125 60.90104Q244.64062 61.385414 244.59375 62.21354ZM253.09375 64.979164L253.25 65.90104Q252.79688 65.99479 252.45312 65.99479Q251.875 65.99479 251.5625 65.822914Q251.25 65.635414 251.10938 65.33854Q250.98438 65.041664 250.98438 64.08854L250.98438 60.510414L250.21875 60.510414L250.21875 59.697914L250.98438 59.697914L250.98438 58.15104L252.03125 57.52604L252.03125 59.697914L253.09375 59.697914L253.09375 60.510414L252.03125 60.510414L252.03125 64.15104Q252.03125 64.604164 252.07812 64.729164Q252.14062 64.854164 252.26562 64.93229Q252.39062 65.010414 252.625 65.010414Q252.8125 65.010414 253.09375 64.979164ZM257.85938 65.15104Q257.26562 65.65104 256.71875 65.854164Q256.1875 66.05729 255.5625 66.05729Q254.53125 66.05729 253.98438 65.55729Q253.4375 65.05729 253.4375 64.27604Q253.4375 63.822914 253.64062 63.447914Q253.84375 63.05729 254.1875 62.83854Q254.53125 62.604164 254.95312 62.49479Q255.25 62.40104 255.89062 62.322914Q257.15625 62.18229 257.76562 61.96354Q257.76562 61.74479 257.76562 61.697914Q257.76562 61.041664 257.46875 60.77604Q257.0625 60.43229 256.26562 60.43229Q255.53125 60.43229 255.17188 60.697914Q254.8125 60.947914 254.64062 61.604164L253.60938 61.46354Q253.75 60.80729 254.07812 60.40104Q254.40625 59.99479 255.01562 59.77604Q255.625 59.55729 256.42188 59.55729Q257.21875 59.55729 257.71875 59.74479Q258.21875 59.93229 258.45312 60.21354Q258.6875 60.49479 258.78125 60.93229Q258.82812 61.197914 258.82812 61.90104L258.82812 63.30729Q258.82812 64.77604 258.89062 65.166664Q258.96875 65.55729 259.17188 65.916664L258.0625 65.916664Q257.90625 65.58854 257.85938 65.15104ZM257.76562 62.791664Q257.1875 63.02604 256.04688 63.197914Q255.39062 63.291664 255.125 63.416664Q254.85938 63.52604 254.70312 63.74479Q254.5625 63.96354 254.5625 64.24479Q254.5625 64.666664 254.875 64.947914Q255.20312 65.229164 255.8125 65.229164Q256.42188 65.229164 256.89062 64.96354Q257.375 64.697914 257.59375 64.229164Q257.76562 63.86979 257.76562 63.18229L257.76562 62.791664ZM260.76562 65.916664L260.76562 57.322914L261.82812 57.322914L261.82812 65.916664L260.76562 65.916664Z" fill-rule="nonzero"/><path fill="#fbbc04" d="M279.0 56.916668C279.0 56.364384 279.44772 55.916668 280.0 55.916668L290.0 55.916668C290.55228 55.916668 291.0 56.364384 291.0 56.916668L291.0 66.916664C291.0 67.46895 290.55228 67.916664 290.0 67.916664L280.0 67.916664C279.44772 67.916664 279.0 67.46895 279.0 66.916664Z" fill-rule="nonzero"/><path fill="#1a1a1a" d="M299.95312 65.916664L299.95312 57.322914L306.15625 57.322914L306.15625 58.33854L301.09375 58.33854L301.09375 60.96354L305.84375 60.96354L305.84375 61.979164L301.09375 61.979164L301.09375 64.90104L306.35938 64.90104L306.35938 65.916664L299.95312 65.916664ZM307.79688 65.916664L307.79688 59.697914L308.73438 59.697914L308.73438 60.572914Q309.42188 59.55729 310.71875 59.55729Q311.28125 59.55729 311.75 59.760414Q312.23438 59.96354 312.46875 60.291664Q312.70312 60.61979 312.79688 61.05729Q312.84375 61.354164 312.84375 62.08854L312.84375 65.916664L311.79688 65.916664L311.79688 62.135414Q311.79688 61.479164 311.67188 61.166664Q311.54688 60.854164 311.23438 60.666664Q310.92188 60.46354 310.5 60.46354Q309.82812 60.46354 309.32812 60.90104Q308.84375 61.322914 308.84375 62.510414L308.84375 65.916664L307.79688 65.916664ZM318.875 65.916664L318.875 64.99479Q318.14062 66.05729 316.89062 66.05729Q316.34375 66.05729 315.85938 65.854164Q315.39062 65.635414 315.15625 65.322914Q314.92188 64.99479 314.82812 64.52604Q314.76562 64.229164 314.76562 63.541664L314.76562 59.697914L315.82812 59.697914L315.82812 63.15104Q315.82812 63.96354 315.89062 64.260414Q315.98438 64.666664 316.29688 64.916664Q316.625 65.15104 317.10938 65.15104Q317.57812 65.15104 317.98438 64.916664Q318.40625 64.666664 318.57812 64.24479Q318.76562 63.822914 318.76562 63.02604L318.76562 59.697914L319.8125 59.697914L319.8125 65.916664L318.875 65.916664ZM321.79688 65.916664L321.79688 59.697914L322.73438 59.697914L322.73438 60.572914Q323.03125 60.104164 323.51562 59.83854Q324.0 59.55729 324.625 59.55729Q325.3125 59.55729 325.75 59.83854Q326.20312 60.11979 326.375 60.635414Q327.125 59.55729 328.29688 59.55729Q329.23438 59.55729 329.71875 60.072914Q330.21875 60.572914 330.21875 61.65104L330.21875 65.916664L329.17188 65.916664L329.17188 61.99479Q329.17188 61.36979 329.0625 61.08854Q328.96875 60.80729 328.70312 60.635414Q328.4375 60.46354 328.0625 60.46354Q327.40625 60.46354 326.96875 60.90104Q326.54688 61.33854 326.54688 62.30729L326.54688 65.916664L325.48438 65.916664L325.48438 61.86979Q325.48438 61.166664 325.21875 60.822914Q324.96875 60.46354 324.39062 60.46354Q323.9375 60.46354 323.5625 60.697914Q323.1875 60.93229 323.01562 61.385414Q322.84375 61.83854 322.84375 62.68229L322.84375 65.916664L321.79688 65.916664ZM338.82812 65.916664L338.82812 65.135414Q338.23438 66.05729 337.09375 66.05729Q336.34375 66.05729 335.71875 65.65104Q335.09375 65.229164 334.75 64.49479Q334.40625 63.760414 334.40625 62.80729Q334.40625 61.885414 334.71875 61.11979Q335.03125 60.354164 335.65625 59.96354Q336.28125 59.55729 337.04688 59.55729Q337.60938 59.55729 338.04688 59.791664Q338.48438 60.02604 338.76562 60.40104L338.76562 57.322914L339.8125 57.322914L339.8125 65.916664L338.82812 65.916664ZM335.5 62.80729Q335.5 64.010414 336.0 64.604164Q336.5 65.18229 337.1875 65.18229Q337.875 65.18229 338.35938 64.61979Q338.84375 64.05729 338.84375 62.90104Q338.84375 61.61979 338.34375 61.02604Q337.85938 60.43229 337.14062 60.43229Q336.4375 60.43229 335.96875 61.010414Q335.5 61.572914 335.5 62.80729ZM341.5 63.65104L342.5625 63.510414Q342.73438 64.40104 343.17188 64.80729Q343.60938 65.197914 344.23438 65.197914Q344.98438 65.197914 345.5 64.68229Q346.01562 64.166664 346.01562 63.40104Q346.01562 62.68229 345.53125 62.21354Q345.0625 61.729164 344.32812 61.729164Q344.03125 61.729164 343.57812 61.854164L343.70312 60.916664Q343.8125 60.93229 343.875 60.93229Q344.54688 60.93229 345.07812 60.58854Q345.625 60.229164 345.625 59.49479Q345.625 58.916664 345.23438 58.541664Q344.84375 58.15104 344.21875 58.15104Q343.60938 58.15104 343.1875 58.541664Q342.78125 58.93229 342.67188 59.697914L341.60938 59.510414Q341.79688 58.46354 342.48438 57.885414Q343.17188 57.291664 344.1875 57.291664Q344.89062 57.291664 345.48438 57.604164Q346.07812 57.90104 346.39062 58.416664Q346.70312 58.93229 346.70312 59.52604Q346.70312 60.072914 346.40625 60.541664Q346.10938 60.99479 345.53125 61.260414Q346.28125 61.43229 346.70312 61.99479Q347.125 62.541664 347.125 63.385414Q347.125 64.510414 346.29688 65.291664Q345.48438 66.072914 344.23438 66.072914Q343.10938 66.072914 342.35938 65.40104Q341.60938 64.71354 341.5 63.65104Z" fill-rule="nonzero"/><path fill="#34a853" d="M367.0 56.916668C367.0 56.364384 367.44772 55.916668 368.0 55.916668L378.0 55.916668C378.55228 55.916668 379.0 56.364384 379.0 56.916668L379.0 66.916664C379.0 67.46895 378.55228 67.916664 378.0 67.916664L368.0 67.916664C367.44772 67.916664 367.0 67.46895 367.0 66.916664Z" fill-rule="nonzero"/><path fill="#1a1a1a" d="M387.95312 65.916664L387.95312 57.322914L394.15625 57.322914L394.15625 58.33854L389.09375 58.33854L389.09375 60.96354L393.84375 60.96354L393.84375 61.979164L389.09375 61.979164L389.09375 64.90104L394.35938 64.90104L394.35938 65.916664L387.95312 65.916664ZM395.79688 65.916664L395.79688 59.697914L396.73438 59.697914L396.73438 60.572914Q397.42188 59.55729 398.71875 59.55729Q399.28125 59.55729 399.75 59.760414Q400.23438 59.96354 400.46875 60.291664Q400.70312 60.61979 400.79688 61.05729Q400.84375 61.354164 400.84375 62.08854L400.84375 65.916664L399.79688 65.916664L399.79688 62.135414Q399.79688 61.479164 399.67188 61.166664Q399.54688 60.854164 399.23438 60.666664Q398.92188 60.46354 398.5 60.46354Q397.82812 60.46354 397.32812 60.90104Q396.84375 61.322914 396.84375 62.510414L396.84375 65.916664L395.79688 65.916664ZM406.875 65.916664L406.875 64.99479Q406.14062 66.05729 404.89062 66.05729Q404.34375 66.05729 403.85938 65.854164Q403.39062 65.635414 403.15625 65.322914Q402.92188 64.99479 402.82812 64.52604Q402.76562 64.229164 402.76562 63.541664L402.76562 59.697914L403.82812 59.697914L403.82812 63.15104Q403.82812 63.96354 403.89062 64.260414Q403.98438 64.666664 404.29688 64.916664Q404.625 65.15104 405.10938 65.15104Q405.57812 65.15104 405.98438 64.916664Q406.40625 64.666664 406.57812 64.24479Q406.76562 63.822914 406.76562 63.02604L406.76562 59.697914L407.8125 59.697914L407.8125 65.916664L406.875 65.916664ZM409.79688 65.916664L409.79688 59.697914L410.73438 59.697914L410.73438 60.572914Q411.03125 60.104164 411.51562 59.83854Q412.0 59.55729 412.625 59.55729Q413.3125 59.55729 413.75 59.83854Q414.20312 60.11979 414.375 60.635414Q415.125 59.55729 416.29688 59.55729Q417.23438 59.55729 417.71875 60.072914Q418.21875 60.572914 418.21875 61.65104L418.21875 65.916664L417.17188 65.916664L417.17188 61.99479Q417.17188 61.36979 417.0625 61.08854Q416.96875 60.80729 416.70312 60.635414Q416.4375 60.46354 416.0625 60.46354Q415.40625 60.46354 414.96875 60.90104Q414.54688 61.33854 414.54688 62.30729L414.54688 65.916664L413.48438 65.916664L413.48438 61.86979Q413.48438 61.166664 413.21875 60.822914Q412.96875 60.46354 412.39062 60.46354Q411.9375 60.46354 411.5625 60.697914Q411.1875 60.93229 411.01562 61.385414Q410.84375 61.83854 410.84375 62.68229L410.84375 65.916664L409.79688 65.916664ZM426.82812 65.916664L426.82812 65.135414Q426.23438 66.05729 425.09375 66.05729Q424.34375 66.05729 423.71875 65.65104Q423.09375 65.229164 422.75 64.49479Q422.40625 63.760414 422.40625 62.80729Q422.40625 61.885414 422.71875 61.11979Q423.03125 60.354164 423.65625 59.96354Q424.28125 59.55729 425.04688 59.55729Q425.60938 59.55729 426.04688 59.791664Q426.48438 60.02604 426.76562 60.40104L426.76562 57.322914L427.8125 57.322914L427.8125 65.916664L426.82812 65.916664ZM423.5 62.80729Q423.5 64.010414 424.0 64.604164Q424.5 65.18229 425.1875 65.18229Q425.875 65.18229 426.35938 64.61979Q426.84375 64.05729 426.84375 62.90104Q426.84375 61.61979 426.34375 61.02604Q425.85938 60.43229 425.14062 60.43229Q424.4375 60.43229 423.96875 61.010414Q423.5 61.572914 423.5 62.80729ZM432.875 65.916664L432.875 63.854164L429.15625 63.854164L429.15625 62.885414L433.07812 57.322914L433.9375 57.322914L433.9375 62.885414L435.09375 62.885414L435.09375 63.854164L433.9375 63.854164L433.9375 65.916664L432.875 65.916664ZM432.875 62.885414L432.875 59.02604L430.1875 62.885414L432.875 62.885414Z" fill-rule="nonzero"/><path fill="#ff6d01" d="M452.0 56.916668C452.0 56.364384 452.44772 55.916668 453.0 55.916668L463.0 55.916668C463.55228 55.916668 464.0 56.364384 464.0 56.916668L464.0 66.916664C464.0 67.46895 463.55228 67.916664 463.0 67.916664L453.0 67.916664C452.44772 67.916664 452.0 67.46895 452.0 66.916664Z" fill-rule="nonzero"/><path fill="#1a1a1a" d="M476.95312 62.541664L476.95312 61.541664L480.57812 61.52604L480.57812 64.71354Q479.75 65.385414 478.85938 65.729164Q477.96875 66.05729 477.03125 66.05729Q475.76562 66.05729 474.71875 65.52604Q473.6875 64.979164 473.15625 63.96354Q472.64062 62.93229 472.64062 61.666664Q472.64062 60.40104 473.15625 59.322914Q473.6875 58.229164 474.67188 57.71354Q475.65625 57.18229 476.9375 57.18229Q477.875 57.18229 478.625 57.479164Q479.375 57.77604 479.79688 58.322914Q480.23438 58.854164 480.45312 59.729164L479.4375 60.010414Q479.23438 59.354164 478.9375 58.979164Q478.65625 58.604164 478.125 58.385414Q477.59375 58.15104 476.95312 58.15104Q476.17188 58.15104 475.59375 58.385414Q475.03125 58.61979 474.67188 59.010414Q474.32812 59.40104 474.14062 59.86979Q473.8125 60.666664 473.8125 61.58854Q473.8125 62.74479 474.20312 63.52604Q474.60938 64.291664 475.35938 64.666664Q476.10938 65.041664 476.96875 65.041664Q477.70312 65.041664 478.40625 64.760414Q479.10938 64.46354 479.46875 64.15104L479.46875 62.541664L476.95312 62.541664ZM481.78125 65.916664L481.78125 59.697914L482.73438 59.697914L482.73438 60.635414Q483.09375 59.979164 483.39062 59.77604Q483.70312 59.55729 484.07812 59.55729Q484.60938 59.55729 485.15625 59.885414L484.79688 60.86979Q484.40625 60.635414 484.03125 60.635414Q483.67188 60.635414 483.39062 60.854164Q483.125 61.05729 483.01562 61.43229Q482.82812 61.99479 482.82812 62.65104L482.82812 65.916664L481.78125 65.916664ZM490.04688 63.916664L491.14062 64.041664Q490.89062 64.99479 490.1875 65.52604Q489.48438 66.05729 488.40625 66.05729Q487.04688 66.05729 486.23438 65.21354Q485.4375 64.36979 485.4375 62.854164Q485.4375 61.291664 486.25 60.43229Q487.0625 59.55729 488.34375 59.55729Q489.59375 59.55729 490.375 60.40104Q491.17188 61.24479 491.17188 62.791664Q491.17188 62.885414 491.17188 63.072914L486.53125 63.072914Q486.59375 64.104164 487.10938 64.65104Q487.625 65.18229 488.40625 65.18229Q488.98438 65.18229 489.39062 64.885414Q489.8125 64.572914 490.04688 63.916664ZM486.59375 62.21354L490.0625 62.21354Q490.0 61.416664 489.67188 61.02604Q489.15625 60.416664 488.35938 60.416664Q487.625 60.416664 487.125 60.90104Q486.64062 61.385414 486.59375 62.21354ZM497.04688 63.916664L498.14062 64.041664Q497.89062 64.99479 497.1875 65.52604Q496.48438 66.05729 495.40625 66.05729Q494.04688 66.05729 493.23438 65.21354Q492.4375 64.36979 492.4375 62.854164Q492.4375 61.291664 493.25 60.43229Q494.0625 59.55729 495.34375 59.55729Q496.59375 59.55729 497.375 60.40104Q498.17188 61.24479 498.17188 62.791664Q498.17188 62.885414 498.17188 63.072914L493.53125 63.072914Q493.59375 64.104164 494.10938 64.65104Q494.625 65.18229 495.40625 65.18229Q495.98438 65.18229 496.39062 64.885414Q496.8125 64.572914 497.04688 63.916664ZM493.59375 62.21354L497.0625 62.21354Q497.0 61.416664 496.67188 61.02604Q496.15625 60.416664 495.35938 60.416664Q494.625 60.416664 494.125 60.90104Q493.64062 61.385414 493.59375 62.21354ZM503.82812 65.916664L503.82812 65.135414Q503.23438 66.05729 502.09375 66.05729Q501.34375 66.05729 500.71875 65.65104Q500.09375 65.229164 499.75 64.49479Q499.40625 63.760414 499.40625 62.80729Q499.40625 61.885414 499.71875 61.11979Q500.03125 60.354164 500.65625 59.96354Q501.28125 59.55729 502.04688 59.55729Q502.60938 59.55729 503.04688 59.791664Q503.48438 60.02604 503.76562 60.40104L503.76562 57.322914L504.8125 57.322914L504.8125 65.916664L503.82812 65.916664ZM500.5 62.80729Q500.5 64.010414 501.0 64.604164Q501.5 65.18229 502.1875 65.18229Q502.875 65.18229 503.35938 64.61979Q503.84375 64.05729 503.84375 62.90104Q503.84375 61.61979 503.34375 61.02604Q502.85938 60.43229 502.14062 60.43229Q501.4375 60.43229 500.96875 61.010414Q500.5 61.572914 500.5 62.80729ZM506.75 68.30729L506.625 67.322914Q506.96875 67.416664 507.23438 67.416664Q507.57812 67.416664 507.78125 67.291664Q508.0 67.18229 508.14062 66.979164Q508.23438 66.80729 508.46875 66.18229Q508.48438 66.104164 508.5625 65.93229L506.1875 59.697914L507.32812 59.697914L508.625 63.291664Q508.875 63.979164 509.07812 64.74479Q509.26562 64.010414 509.51562 63.322914L510.84375 59.697914L511.89062 59.697914L509.53125 66.02604Q509.14062 67.041664 508.9375 67.43229Q508.65625 67.96354 508.28125 68.197914Q507.92188 68.447914 507.42188 68.447914Q507.125 68.447914 506.75 68.30729Z" fill-rule="nonzero"/><path fill="#757575" d="M20.01875 37.55L20.01875 23.2375L25.39375 23.2375Q27.034374 23.2375 28.01875 23.675Q29.003124 24.096874 29.565624 25.003124Q30.128124 25.909374 30.128124 26.89375Q30.128124 27.815624 29.628124 28.628124Q29.14375 29.440624 28.128124 29.925Q29.425 30.315624 30.128124 31.2375Q30.83125 32.14375 30.83125 33.39375Q30.83125 34.409374 30.39375 35.26875Q29.971874 36.128124 29.346874 36.596874Q28.721874 37.065624 27.784374 37.315624Q26.846874 37.55 25.471874 37.55L20.01875 37.55ZM21.909374 29.253124L25.003124 29.253124Q26.26875 29.253124 26.815624 29.08125Q27.534374 28.8625 27.89375 28.378124Q28.26875 27.878124 28.26875 27.1125Q28.26875 26.409374 27.925 25.8625Q27.58125 25.315624 26.940624 25.128124Q26.315624 24.925 24.76875 24.925L21.909374 24.925L21.909374 29.253124ZM21.909374 35.8625L25.471874 35.8625Q26.39375 35.8625 26.76875 35.784374Q27.425 35.675 27.8625 35.409374Q28.3 35.128124 28.58125 34.6125Q28.8625 34.08125 28.8625 33.39375Q28.8625 32.596874 28.45625 32.003124Q28.05 31.409374 27.315624 31.175Q26.58125 30.940624 25.221874 30.940624L21.909374 30.940624L21.909374 35.8625ZM39.64375 36.26875Q38.659374 37.096874 37.753124 37.440624Q36.846874 37.784374 35.815624 37.784374Q34.1125 37.784374 33.190624 36.95625Q32.26875 36.1125 32.26875 34.815624Q32.26875 34.05 32.6125 33.425Q32.971874 32.8 33.534374 32.425Q34.096874 32.034374 34.8 31.83125Q35.315624 31.70625 36.3625 31.565624Q38.4875 31.315624 39.4875 30.971874Q39.503124 30.6125 39.503124 30.503124Q39.503124 29.440624 39.003124 28.9875Q38.33125 28.39375 37.003124 28.39375Q35.753124 28.39375 35.159374 28.83125Q34.58125 29.26875 34.3 30.378124L32.58125 30.14375Q32.815624 29.034374 33.346874 28.3625Q33.878124 27.675 34.89375 27.315624Q35.909374 26.940624 37.253124 26.940624Q38.58125 26.940624 39.409374 27.253124Q40.2375 27.565624 40.628124 28.05Q41.01875 28.51875 41.175 29.2375Q41.26875 29.690624 41.26875 30.8625L41.26875 33.20625Q41.26875 35.659374 41.378124 36.315624Q41.4875 36.95625 41.83125 37.55L39.9875 37.55Q39.721874 37.003124 39.64375 36.26875ZM39.4875 32.346874Q38.534374 32.7375 36.6125 33.003124Q35.534374 33.159374 35.08125 33.3625Q34.64375 33.55 34.39375 33.925Q34.14375 34.3 34.14375 34.76875Q34.14375 35.471874 34.675 35.940624Q35.20625 36.409374 36.2375 36.409374Q37.253124 36.409374 38.034374 35.971874Q38.83125 35.51875 39.20625 34.753124Q39.4875 34.14375 39.4875 32.9875L39.4875 32.346874ZM43.159374 34.45625L44.909374 34.175Q45.05 35.221874 45.721874 35.784374Q46.39375 36.33125 47.596874 36.33125Q48.8 36.33125 49.378124 35.846874Q49.971874 35.346874 49.971874 34.690624Q49.971874 34.096874 49.45625 33.753124Q49.096874 33.51875 47.659374 33.159374Q45.721874 32.659374 44.971874 32.315624Q44.2375 31.95625 43.846874 31.33125Q43.45625 30.690624 43.45625 29.925Q43.45625 29.2375 43.76875 28.64375Q44.096874 28.05 44.64375 27.659374Q45.05 27.3625 45.753124 27.159374Q46.471874 26.940624 47.284374 26.940624Q48.503124 26.940624 49.425 27.3Q50.346874 27.64375 50.784374 28.253124Q51.221874 28.846874 51.39375 29.846874L49.675 30.08125Q49.55 29.284374 48.9875 28.846874Q48.425 28.39375 47.409374 28.39375Q46.190624 28.39375 45.675 28.8Q45.159374 29.190624 45.159374 29.721874Q45.159374 30.065624 45.378124 30.346874Q45.58125 30.628124 46.05 30.815624Q46.315624 30.909374 47.596874 31.253124Q49.471874 31.753124 50.20625 32.08125Q50.940624 32.39375 51.3625 33.003124Q51.784374 33.596874 51.784374 34.503124Q51.784374 35.378124 51.26875 36.159374Q50.753124 36.940624 49.784374 37.3625Q48.815624 37.784374 47.596874 37.784374Q45.58125 37.784374 44.51875 36.940624Q43.45625 36.096874 43.159374 34.45625ZM60.971874 34.20625L62.784374 34.440624Q62.3625 36.01875 61.190624 36.909374Q60.034374 37.784374 58.221874 37.784374Q55.95625 37.784374 54.6125 36.39375Q53.284374 34.9875 53.284374 32.45625Q53.284374 29.83125 54.628124 28.39375Q55.971874 26.940624 58.128124 26.940624Q60.20625 26.940624 61.51875 28.3625Q62.846874 29.76875 62.846874 32.346874Q62.846874 32.503124 62.83125 32.815624L55.096874 32.815624Q55.190624 34.51875 56.065624 35.425Q56.940624 36.33125 58.2375 36.33125Q59.20625 36.33125 59.878124 35.83125Q60.565624 35.315624 60.971874 34.20625ZM55.190624 31.3625L60.9875 31.3625Q60.878124 30.065624 60.33125 29.409374Q59.4875 28.39375 58.14375 28.39375Q56.940624 28.39375 56.1125 29.20625Q55.284374 30.003124 55.190624 31.3625ZM64.83125 37.55L64.83125 23.2375L66.58125 23.2375L66.58125 37.55L64.83125 37.55ZM68.87813 25.253124L68.87813 23.2375L70.64375 23.2375L70.64375 25.253124L68.87813 25.253124ZM68.87813 37.55L68.87813 27.175L70.64375 27.175L70.64375 37.55L68.87813 37.55ZM72.8625 37.55L72.8625 27.175L74.45625 27.175L74.45625 28.659374Q75.59688 26.940624 77.75313 26.940624Q78.69063 26.940624 79.47188 27.284374Q80.26875 27.6125 80.65938 28.159374Q81.05 28.70625 81.20625 29.45625Q81.3 29.95625 81.3 31.175L81.3 37.55L79.53438 37.55L79.53438 31.2375Q79.53438 30.159374 79.33125 29.628124Q79.12813 29.096874 78.59688 28.784374Q78.08125 28.471874 77.37813 28.471874Q76.25313 28.471874 75.44063 29.190624Q74.62813 29.89375 74.62813 31.878124L74.62813 37.55L72.8625 37.55ZM90.97188 34.20625L92.78438 34.440624Q92.3625 36.01875 91.19063 36.909374Q90.03438 37.784374 88.22188 37.784374Q85.95625 37.784374 84.6125 36.39375Q83.28438 34.9875 83.28438 32.45625Q83.28438 29.83125 84.62813 28.39375Q85.97188 26.940624 88.12813 26.940624Q90.20625 26.940624 91.51875 28.3625Q92.84688 29.76875 92.84688 32.346874Q92.84688 32.503124 92.83125 32.815624L85.09688 32.815624Q85.19063 34.51875 86.06563 35.425Q86.94063 36.33125 88.2375 36.33125Q89.20625 36.33125 89.87813 35.83125Q90.56563 35.315624 90.97188 34.20625ZM85.19063 31.3625L90.9875 31.3625Q90.87813 30.065624 90.33125 29.409374Q89.4875 28.39375 88.14375 28.39375Q86.94063 28.39375 86.1125 29.20625Q85.28438 30.003124 85.19063 31.3625ZM111.31563 32.534374L113.20625 33.003124Q112.6125 35.346874 111.06563 36.58125Q109.51875 37.8 107.26875 37.8Q104.95625 37.8 103.50313 36.8625Q102.06563 35.909374 101.3 34.128124Q100.55 32.33125 100.55 30.284374Q100.55 28.05 101.39375 26.39375Q102.25313 24.721874 103.83125 23.8625Q105.40938 22.9875 107.3 22.9875Q109.45625 22.9875 110.90938 24.08125Q112.37813 25.175 112.95625 27.159374L111.09688 27.596874Q110.59688 26.034374 109.64375 25.33125Q108.70625 24.6125 107.26875 24.6125Q105.6125 24.6125 104.50313 25.409374Q103.39375 26.190624 102.94063 27.534374Q102.50313 28.8625 102.50313 30.26875Q102.50313 32.096874 103.03438 33.471874Q103.56563 34.83125 104.69063 35.503124Q105.81563 36.175 107.1125 36.175Q108.70625 36.175 109.81563 35.253124Q110.925 34.33125 111.31563 32.534374ZM114.22188 32.3625Q114.22188 29.4875 115.81563 28.096874Q117.15938 26.940624 119.08125 26.940624Q121.22188 26.940624 122.56563 28.346874Q123.925 29.753124 123.925 32.221874Q123.925 34.221874 123.33125 35.378124Q122.7375 36.51875 121.58125 37.159374Q120.44063 37.784374 119.08125 37.784374Q116.89375 37.784374 115.55 36.39375Q114.22188 34.9875 114.22188 32.3625ZM116.01875 32.3625Q116.01875 34.3625 116.87813 35.346874Q117.75313 36.33125 119.08125 36.33125Q120.39375 36.33125 121.25313 35.346874Q122.12813 34.346874 122.12813 32.3Q122.12813 30.378124 121.25313 29.39375Q120.37813 28.39375 119.08125 28.39375Q117.75313 28.39375 116.87813 29.39375Q116.01875 30.378124 116.01875 32.3625ZM125.8625 37.55L125.8625 27.175L127.44063 27.175L127.44063 28.628124Q127.925 27.878124 128.7375 27.409374Q129.55 26.940624 130.58125 26.940624Q131.7375 26.940624 132.47188 27.425Q133.20625 27.89375 133.51875 28.753124Q134.75313 26.940624 136.72188 26.940624Q138.26875 26.940624 139.09688 27.8Q139.925 28.659374 139.925 30.425L139.925 37.55L138.175 37.55L138.175 31.01875Q138.175 29.95625 138.00313 29.503124Q137.83125 29.034374 137.37813 28.753124Q136.94063 28.471874 136.33125 28.471874Q135.2375 28.471874 134.50313 29.20625Q133.78438 29.925 133.78438 31.51875L133.78438 37.55L132.03438 37.55L132.03438 30.815624Q132.03438 29.64375 131.59688 29.065624Q131.175 28.471874 130.19063 28.471874Q129.45625 28.471874 128.81563 28.8625Q128.19063 29.253124 127.90938 30.003124Q127.62813 30.753124 127.62813 32.175L127.62813 37.55L125.8625 37.55ZM142.8625 41.51875L142.8625 27.175L144.47188 27.175L144.47188 28.51875Q145.03438 27.7375 145.7375 27.346874Q146.45625 26.940624 147.47188 26.940624Q148.8 26.940624 149.81563 27.628124Q150.83125 28.315624 151.34688 29.565624Q151.87813 30.8 151.87813 32.284374Q151.87813 33.878124 151.3 35.159374Q150.7375 36.425 149.64375 37.1125Q148.55 37.784374 147.34688 37.784374Q146.47188 37.784374 145.76875 37.409374Q145.08125 37.034374 144.62813 36.471874L144.62813 41.51875L142.8625 41.51875ZM144.45625 32.425Q144.45625 34.425 145.26875 35.378124Q146.08125 36.33125 147.2375 36.33125Q148.40938 36.33125 149.2375 35.346874Q150.08125 34.3625 150.08125 32.26875Q150.08125 30.3 149.25313 29.315624Q148.44063 28.315624 147.31563 28.315624Q146.19063 28.315624 145.31563 29.378124Q144.45625 30.425 144.45625 32.425ZM160.64375 36.26875Q159.65938 37.096874 158.75313 37.440624Q157.84688 37.784374 156.81563 37.784374Q155.1125 37.784374 154.19063 36.95625Q153.26875 36.1125 153.26875 34.815624Q153.26875 34.05 153.6125 33.425Q153.97188 32.8 154.53438 32.425Q155.09688 32.034374 155.8 31.83125Q156.31563 31.70625 157.3625 31.565624Q159.4875 31.315624 160.4875 30.971874Q160.50313 30.6125 160.50313 30.503124Q160.50313 29.440624 160.00313 28.9875Q159.33125 28.39375 158.00313 28.39375Q156.75313 28.39375 156.15938 28.83125Q155.58125 29.26875 155.3 30.378124L153.58125 30.14375Q153.81563 29.034374 154.34688 28.3625Q154.87813 27.675 155.89375 27.315624Q156.90938 26.940624 158.25313 26.940624Q159.58125 26.940624 160.40938 27.253124Q161.2375 27.565624 161.62813 28.05Q162.01875 28.51875 162.175 29.2375Q162.26875 29.690624 162.26875 30.8625L162.26875 33.20625Q162.26875 35.659374 162.37813 36.315624Q162.4875 36.95625 162.83125 37.55L160.9875 37.55Q160.72188 37.003124 160.64375 36.26875ZM160.4875 32.346874Q159.53438 32.7375 157.6125 33.003124Q156.53438 33.159374 156.08125 33.3625Q155.64375 33.55 155.39375 33.925Q155.14375 34.3 155.14375 34.76875Q155.14375 35.471874 155.675 35.940624Q156.20625 36.409374 157.2375 36.409374Q158.25313 36.409374 159.03438 35.971874Q159.83125 35.51875 160.20625 34.753124Q160.4875 34.14375 160.4875 32.9875L160.4875 32.346874ZM164.84688 37.55L164.84688 27.175L166.425 27.175L166.425 28.753124Q167.03438 27.64375 167.55 27.3Q168.06563 26.940624 168.675 26.940624Q169.56563 26.940624 170.4875 27.503124L169.87813 29.14375Q169.2375 28.753124 168.59688 28.753124Q168.01875 28.753124 167.55 29.1125Q167.09688 29.45625 166.89375 30.065624Q166.6125 31.003124 166.6125 32.1125L166.6125 37.55L164.84688 37.55ZM171.87813 25.253124L171.87813 23.2375L173.64375 23.2375L173.64375 25.253124L171.87813 25.253124ZM171.87813 37.55L171.87813 27.175L173.64375 27.175L173.64375 37.55L171.87813 37.55ZM175.15938 34.45625L176.90938 34.175Q177.05 35.221874 177.72188 35.784374Q178.39375 36.33125 179.59688 36.33125Q180.8 36.33125 181.37813 35.846874Q181.97188 35.346874 181.97188 34.690624Q181.97188 34.096874 181.45625 33.753124Q181.09688 33.51875 179.65938 33.159374Q177.72188 32.659374 176.97188 32.315624Q176.2375 31.95625 175.84688 31.33125Q175.45625 30.690624 175.45625 29.925Q175.45625 29.2375 175.76875 28.64375Q176.09688 28.05 176.64375 27.659374Q177.05 27.3625 177.75313 27.159374Q178.47188 26.940624 179.28438 26.940624Q180.50313 26.940624 181.425 27.3Q182.34688 27.64375 182.78438 28.253124Q183.22188 28.846874 183.39375 29.846874L181.675 30.08125Q181.55 29.284374 180.9875 28.846874Q180.425 28.39375 179.40938 28.39375Q178.19063 28.39375 177.675 28.8Q177.15938 29.190624 177.15938 29.721874Q177.15938 30.065624 177.37813 30.346874Q177.58125 30.628124 178.05 30.815624Q178.31563 30.909374 179.59688 31.253124Q181.47188 31.753124 182.20625 32.08125Q182.94063 32.39375 183.3625 33.003124Q183.78438 33.596874 183.78438 34.503124Q183.78438 35.378124 183.26875 36.159374Q182.75313 36.940624 181.78438 37.3625Q180.81563 37.784374 179.59688 37.784374Q177.58125 37.784374 176.51875 36.940624Q175.45625 36.096874 175.15938 34.45625ZM185.22188 32.3625Q185.22188 29.4875 186.81563 28.096874Q188.15938 26.940624 190.08125 26.940624Q192.22188 26.940624 193.56563 28.346874Q194.925 29.753124 194.925 32.221874Q194.925 34.221874 194.33125 35.378124Q193.7375 36.51875 192.58125 37.159374Q191.44063 37.784374 190.08125 37.784374Q187.89375 37.784374 186.55 36.39375Q185.22188 34.9875 185.22188 32.3625ZM187.01875 32.3625Q187.01875 34.3625 187.87813 35.346874Q188.75313 36.33125 190.08125 36.33125Q191.39375 36.33125 192.25313 35.346874Q193.12813 34.346874 193.12813 32.3Q193.12813 30.378124 192.25313 29.39375Q191.37813 28.39375 190.08125 28.39375Q188.75313 28.39375 187.87813 29.39375Q187.01875 30.378124 187.01875 32.3625ZM196.8625 37.55L196.8625 27.175L198.45625 27.175L198.45625 28.659374Q199.59688 26.940624 201.75313 26.940624Q202.69063 26.940624 203.47188 27.284374Q204.26875 27.6125 204.65938 28.159374Q205.05 28.70625 205.20625 29.45625Q205.3 29.95625 205.3 31.175L205.3 37.55L203.53438 37.55L203.53438 31.2375Q203.53438 30.159374 203.33125 29.628124Q203.12813 29.096874 202.59688 28.784374Q202.08125 28.471874 201.37813 28.471874Q200.25313 28.471874 199.44063 29.190624Q198.62813 29.89375 198.62813 31.878124L198.62813 37.55L196.8625 37.55Z" fill-rule="nonzero"/></svg>